<?xml version="1.0" encoding="UTF-8"?>
<svg width="126px" height="29px" viewBox="0 0 126 29" version="1.1" xmlns="http://www.w3.org/2000/svg" xmlns:xlink="http://www.w3.org/1999/xlink">
    <title>Artboard</title>
    <g id="Artboard" stroke="none" stroke-width="1" fill="none" fill-rule="evenodd">
        <g id="Bacardi-Logo-white" fill-rule="nonzero">
            <rect id="Rectangle" x="0" y="0" width="126" height="29"></rect>
            <g id="Logo/Wordmark">
                <path d="M37.3953179,17.1821549 L38.4102905,17.1821549 C39.8558989,17.1821549 40.6198568,17.8484721 40.6198568,19.107991 L40.6198568,19.3140021 C40.6198568,20.555587 39.8349811,21.2393784 38.4102905,21.2393784 L37.3953179,21.2393784 L37.3953179,17.1821549 Z M40.1364716,12.4245857 C40.1364716,13.434408 39.5230316,13.9903622 38.4102905,13.9903622 L37.3953179,13.9903622 L37.3953179,10.703841 L38.4612211,10.703841 C39.5102989,10.703841 40.1364716,11.2892253 40.1364716,12.2700774 L40.1364716,12.4245857 Z M41.8249095,15.2779316 C43.2314105,14.7514077 44.1317895,13.4849911 44.1317895,12.0130233 L44.1317895,11.8070122 C44.1317895,9.08150349 41.9572379,7.17819988 38.8427453,7.17819988 L33.4,7.17819988 L33.4,24.7654794 L38.4353011,24.7654794 C42.5183832,24.7654794 44.7675116,22.9389701 44.7675116,19.622559 L44.7675116,19.3650451 C44.7675116,16.7011558 43.1300042,15.7488142 41.8249095,15.2779316 L41.8249095,15.2779316 Z" id="Fill-6672" fill="#FFFFFF"></path>
                <path d="M92.1458611,10.9091164 L92.8056842,10.9091164 C93.8483958,10.9091164 95.0911916,11.2921683 95.0911916,13.1177579 L95.0911916,13.2980176 C95.0911916,14.8003353 94.2581137,15.6611675 92.8056842,15.6611675 L92.1458611,15.6611675 L92.1458611,10.9091164 Z M99.2897768,13.323769 L99.2897768,13.0671748 C99.2897768,9.43484934 96.87376,7.17838382 92.9834863,7.17838382 L87.92272,7.17838382 L87.92272,24.7656633 L92.1458611,24.7656633 L92.1458611,18.9807975 L93.0994442,18.9807975 L95.2471663,24.730715 L95.2598989,24.7656633 L99.6444716,24.7656633 L96.9378779,17.7934745 C98.4771621,16.8429723 99.2897768,15.2988087 99.2897768,13.323769 L99.2897768,13.323769 Z" id="Fill-6674" fill="#FFFFFF"></path>
                <path d="M122.072957,0 L122.072957,0.0533421644 C122.072957,0.64654382 121.55683,0.986370195 121.113462,1.21307439 L117.958498,2.36269001 C117.601075,2.5047825 116.769361,2.97750444 116.769361,4.30140177 L116.769361,6.44704435 L117.148157,6.44704435 L117.148157,6.39370219 C117.148157,5.77566884 117.566969,5.51171709 118.107651,5.23396996 L121.262616,4.08481419 C121.620039,3.94318155 122.452207,3.46953992 122.452207,2.14610242 L122.452207,0 L122.072957,0 Z" id="Fill-6676" fill="#FFFFFF"></path>
                <polygon id="Fill-6678" fill="#FFFFFF" points="116.769543 24.7651575 120.993593 24.7651575 120.993593 7.17787799 116.769543 7.17787799"></polygon>
                <path d="M106.272397,10.9091164 L106.931311,10.9091164 C109.11905,10.9091164 110.18268,12.4725936 110.18268,15.689678 L110.18268,16.2290776 C110.18268,19.4622566 109.11905,21.034011 106.931311,21.034011 L106.272397,21.034011 L106.272397,10.9091164 Z M107.185054,7.17838382 L102.048347,7.17838382 L102.048347,24.7656633 L107.185054,24.7656633 C111.770621,24.7656633 114.508136,21.6221544 114.508136,16.3573747 L114.508136,15.5862126 C114.508136,12.8846159 113.82876,10.769783 112.48956,9.30011439 C111.224027,7.91183858 109.389164,7.17838382 107.185054,7.17838382 L107.185054,7.17838382 Z" id="Fill-6680" fill="#FFFFFF"></path>
                <path d="M80.3841381,19.8513325 L78.1804834,19.8513325 L78.8753213,17.1432979 C79.0494855,16.5799863 79.1849971,15.9927626 79.2659402,15.6414401 C79.2723065,15.6156887 79.2777634,15.5913169 79.2836749,15.566945 C79.3627992,15.8828594 79.5246855,16.5289433 79.7147655,17.1405389 L80.3841381,19.8513325 Z M79.7515992,6.97287853 L79.1181507,6.97287853 L72.6736202,24.6935134 L72.6477002,24.7657093 L76.6261928,24.7657093 L77.1855192,22.9663309 L81.3800118,22.9663309 L81.9643486,24.7657093 L86.1702097,24.7657093 L79.7638771,7.00782685 L79.7515992,6.97287853 Z" id="Fill-6681" fill="#FFFFFF"></path>
                <path d="M53.0951983,19.8464581 L50.8919983,19.8464581 L51.5863815,17.1379637 C51.7623646,16.5663748 51.9046973,15.9520202 51.9801836,15.6218506 C51.9851857,15.6006977 51.9897331,15.5804645 51.9942804,15.5611509 C51.9960994,15.5712676 51.9988278,15.5809243 52.0020109,15.5915008 C52.0856825,15.9235098 52.242112,16.542003 52.4253709,17.1356645 L53.0951983,19.8464581 Z M52.4626594,6.96800416 L51.8296657,6.96800416 L45.3587604,24.7603751 L49.3372531,24.7603751 L49.8961246,22.9407635 L54.0906173,22.9407635 L54.6749541,24.7603751 L58.8808152,24.7603751 L52.4749373,7.00295248 L52.4626594,6.96800416 Z" id="Fill-6682" fill="#FFFFFF"></path>
                <path d="M64.3457971,11.8649068 C64.8823865,11.1562838 65.6154223,10.7815091 66.4653255,10.7815091 C66.835936,10.7815091 67.1760792,10.8380702 67.5066728,10.9548711 C67.5539655,10.9709657 67.5998939,10.9888997 67.6417297,11.0063739 C68.0241634,11.1852541 68.3561213,11.4533444 68.6007697,11.7789156 C68.6326013,11.8276593 68.6653423,11.8782424 68.6976286,11.9315845 C68.7385549,12.0005615 68.7794813,12.0704581 68.8190434,12.1477123 L68.8513297,12.1918575 L72.2322981,10.3800633 L72.2086518,10.3336188 C71.0713549,8.072095 69.1673718,6.97260263 66.3884749,6.97260263 C64.1693592,6.97260263 62.3167613,7.75802001 61.0303107,9.24378323 C59.7115739,10.7654145 59.0153718,13.0030263 59.0153718,15.7142797 L59.0153718,16.2293075 C59.0153718,21.718952 61.7151444,24.9962762 66.2370476,24.9962762 C67.7831528,24.9962762 69.1259907,24.6159833 70.2278181,23.8655143 C70.3096707,23.8103327 70.3883402,23.755611 70.4624623,23.7008893 L70.5006602,23.6682402 L70.5002055,23.6677804 C71.1709423,23.1527526 71.7343613,22.4901142 72.1745465,21.6973392 L72.1977381,21.6559531 L69.2469507,19.5466383 L69.2173928,19.5930828 C68.8908918,20.1062712 68.5471107,20.4819656 68.1710434,20.7390197 C67.5935276,21.0627514 67.034656,21.213581 66.4139402,21.213581 C64.4608455,21.213581 63.3399192,19.3498242 63.3399192,16.1005506 L63.3399192,15.8177451 C63.3399192,14.0763074 63.6791528,12.7464321 64.3457971,11.8649068" id="Fill-6683" fill="#FFFFFF"></path>
                <path d="M123.564039,23.3066631 L123.703188,23.3066631 C123.865529,23.3066631 123.996493,23.2519414 123.996493,23.1190459 C123.996493,23.0017851 123.911458,22.9236112 123.725925,22.9236112 C123.64862,22.9236112 123.594506,22.9318884 123.564039,22.9387861 L123.564039,23.3066631 Z M123.555853,24.0327604 L123.262548,24.0327604 L123.262548,22.7516287 C123.378506,22.7290963 123.540847,22.7125418 123.749571,22.7125418 C123.988763,22.7125418 124.096536,22.7516287 124.189302,22.8068103 C124.258877,22.861532 124.31299,22.9626981 124.31299,23.0877763 C124.31299,23.2284893 124.205218,23.3374728 124.050607,23.3843771 L124.050607,23.4000119 C124.173841,23.4469162 124.24387,23.5407249 124.282068,23.7122475 C124.320266,23.9076822 124.343912,23.985856 124.374835,24.0327604 L124.058338,24.0327604 C124.019685,23.985856 123.996493,23.8685952 123.957841,23.7205248 C123.934195,23.5802716 123.857344,23.5177326 123.695458,23.5177326 L123.555853,23.5177326 L123.555853,24.0327604 Z M122.77598,23.360925 C122.77598,23.9311343 123.193428,24.3845427 123.764578,24.3845427 C124.320266,24.3845427 124.729984,23.9311343 124.729984,23.3692022 C124.729984,22.798533 124.320266,22.3382269 123.756847,22.3382269 C123.193428,22.3382269 122.77598,22.798533 122.77598,23.360925 L122.77598,23.360925 Z M125.054211,23.360925 C125.054211,24.0879419 124.490338,24.6572316 123.756847,24.6572316 C123.031087,24.6572316 122.452207,24.0879419 122.452207,23.360925 C122.452207,22.6504625 123.031087,22.0802532 123.756847,22.0802532 C124.490338,22.0802532 125.054211,22.6504625 125.054211,23.360925 L125.054211,23.360925 Z" id="Fill-6684" fill="#FFFFFF"></path>
                <g id="Logo/Badge" transform="translate(0.760000, 1.941573)">
                    <path d="M13.0159326,9.1969249e-05 C5.82790737,9.1969249e-05 0.000454736842,5.8921019 0.000454736842,13.1608915 C0.000454736842,20.4306008 5.82790737,26.3230706 13.0159326,26.3230706 C20.2035032,26.3230706 26.0309558,20.4306008 26.0309558,13.1608915 C26.0309558,5.8921019 20.2035032,9.1969249e-05 13.0159326,9.1969249e-05" id="Fill-6685" fill="#FFFFFE"></path>
                    <path d="M13.0159326,1.8091271 C6.81559579,1.8091271 1.78938947,6.89180764 1.78938947,13.1618112 C1.78938947,19.4313549 6.81559579,24.5140354 13.0159326,24.5140354 C19.2162695,24.5140354 24.2420211,19.4313549 24.2420211,13.1618112 C24.2420211,6.89180764 19.2162695,1.8091271 13.0159326,1.8091271" id="Fill-6686" fill="#BC2432"></path>
                    <path d="M13.0159326,2.04856904 C6.95656421,2.04856904 2.02630737,7.03376218 2.02630737,13.1616732 C2.02630737,19.2895843 6.95656421,24.2738577 13.0159326,24.2738577 C19.0753011,24.2738577 24.0055579,19.2895843 24.0055579,13.1616732 C24.0055579,7.03376218 19.0753011,2.04856904 13.0159326,2.04856904 M13.0159326,24.7530175 C6.69509053,24.7530175 1.55292632,19.5530762 1.55292632,13.1616732 C1.55292632,6.77027028 6.69509053,1.5698691 13.0159326,1.5698691 C19.33632,1.5698691 24.4784842,6.77027028 24.4784842,13.1616732 C24.4784842,19.5530762 19.33632,24.7530175 13.0159326,24.7530175" id="Fill-6687" fill="#0C0A09"></path>
                    <path d="M13.0159326,25.5049121 C6.27400421,25.5049121 0.809431579,19.97848 0.809431579,13.1617192 C0.809431579,6.34449864 6.27400421,0.81806647 13.0159326,0.81806647 C19.7574063,0.81806647 25.2219789,6.34449864 25.2219789,13.1617192 C25.2219789,19.97848 19.7574063,25.5049121 13.0159326,25.5049121 M13.0159326,7.76008471e-15 C5.82790737,7.76008471e-15 1.02318154e-13,5.89200993 1.02318154e-13,13.1607995 C1.02318154e-13,20.4305088 5.82790737,26.3225187 13.0159326,26.3225187 C20.2035032,26.3225187 26.0309558,20.4305088 26.0309558,13.1607995 C26.0309558,5.89200993 20.2035032,7.76008471e-15 13.0159326,7.76008471e-15" id="Fill-6688" fill="#BC2432"></path>
                    <path d="M13.0159326,1.1170585 C6.44816842,1.1170585 1.10546526,6.52025187 1.10546526,13.1613513 C1.10546526,19.8029107 6.44816842,25.2051843 13.0159326,25.2051843 C19.5832421,25.2051843 24.9264,19.8029107 24.9264,13.1613513 C24.9264,6.52025187 19.5832421,1.1170585 13.0159326,1.1170585 M13.0159326,25.8039042 C6.12166737,25.8039042 0.513397895,20.1326204 0.513397895,13.1613513 C0.513397895,6.19054212 6.12166737,0.518798533 13.0159326,0.518798533 C19.9101979,0.518798533 25.5180126,6.19054212 25.5180126,13.1613513 C25.5180126,20.1326204 19.9101979,25.8039042 13.0159326,25.8039042" id="Fill-6689" fill="#0C0A09"></path>
                    <path d="M9.99965831,4.27032227 L9.78389567,4.33462548 L9.6694429,4.03854279 L9.89615796,3.9718402 C9.91094372,3.96704146 9.92463425,3.96416221 9.93887239,3.96176284 C9.94544384,3.96032321 9.95201529,3.95888359 9.95858674,3.95792384 C9.97337251,3.95552446 9.98815827,3.95408484 10.0013012,3.95408484 C10.0358013,3.95408484 10.0653728,3.96224271 10.0900158,3.97615908 C10.0971348,3.97903832 10.1031587,3.9833572 10.1097301,3.98767607 C10.1195873,3.99535406 10.1283492,4.00351193 10.1365635,4.01310943 C10.1398493,4.01694843 10.1425874,4.02270692 10.1453255,4.02702579 C10.1524446,4.03806291 10.1595636,4.04910003 10.1650398,4.0630164 C10.2000876,4.15419259 10.1420398,4.22761342 9.99965831,4.27032227 L9.99965831,4.27032227 Z M9.53801387,3.69927138 L9.76089559,3.63400842 C9.79758619,3.62249142 9.83099107,3.6172128 9.85891974,3.6172128 C9.8868484,3.6172128 9.91094372,3.6229713 9.93011046,3.63352854 C9.93284856,3.63544804 9.93613429,3.63688766 9.93942001,3.63832729 C9.9470867,3.64408578 9.95530102,3.65128391 9.96242009,3.65944178 C9.96406295,3.6608814 9.96461057,3.6628009 9.96625344,3.6647204 C9.97227727,3.67287827 9.9783011,3.68247576 9.98213444,3.69399275 C9.99801545,3.73430223 9.99308686,3.77029283 9.96899154,3.80052494 C9.94380098,3.83123692 9.89834844,3.85667028 9.83263393,3.87634514 L9.63001419,3.93680935 L9.53801387,3.69927138 Z M10.2093971,3.91473512 C10.195159,3.90705712 10.1814685,3.90321812 10.1677779,3.8979395 C10.1661351,3.89745963 10.1644922,3.89697975 10.1628493,3.89602 C10.1310873,3.88594263 10.0987777,3.87922439 10.0566109,3.87922439 C10.0418251,3.87922439 10.0243013,3.87970426 10.0056821,3.88114389 C10.0538728,3.84851241 10.1683256,3.76309471 10.1190397,3.63400842 C10.1075396,3.60521593 10.0872777,3.58218195 10.0642776,3.56250709 C10.0642776,3.56250709 10.06373,3.56202721 10.06373,3.56154734 C10.0210155,3.52603661 9.96187247,3.50444225 9.88794364,3.50444225 C9.84194349,3.50444225 9.79375285,3.51260012 9.74391934,3.52699636 L9.36660853,3.63928704 C9.36551328,3.63928704 9.36496566,3.63976691 9.36496566,3.64024679 C9.36441804,3.64072666 9.36441804,3.64120654 9.36496566,3.64168641 L9.68696677,4.47378914 C9.68751439,4.47426901 9.68806201,4.47474889 9.68860963,4.47522876 L9.68970487,4.47522876 L9.69025249,4.47522876 L10.1058968,4.35142109 C10.2811355,4.29911475 10.362731,4.16858883 10.3074213,4.02654592 C10.2882545,3.97711883 10.2553973,3.93920872 10.2093971,3.91473512 L10.2093971,3.91473512 Z" id="Fill-6690" fill="#0C0A09"></path>
                    <path d="M10.7486047,3.81903966 L10.8453665,3.39685368 L11.1217524,3.74811242 L10.7486047,3.81903966 Z M10.8683541,3.2241193 C10.8683541,3.2236368 10.8678195,3.2231543 10.8667503,3.2231543 L10.8662157,3.2231543 L10.7491393,3.24534922 C10.7480701,3.24534922 10.7475355,3.24631422 10.7470009,3.24727921 L10.5288859,4.19104583 C10.5288859,4.19201082 10.5294205,4.19297582 10.5299551,4.19345832 C10.5304897,4.19394082 10.5310243,4.19394082 10.5315589,4.19394082 L10.5320935,4.19394082 L10.666277,4.16836841 C10.6673461,4.16836841 10.6684153,4.16740341 10.6684153,4.16643841 L10.7218749,3.94014673 L11.2019417,3.84847206 L11.3516285,4.03664638 C11.3516285,4.03712888 11.3526977,4.03761138 11.3532323,4.03761138 L11.3537669,4.03761138 L11.4868812,4.01252147 C11.4874158,4.01252147 11.4884849,4.01155647 11.4884849,4.01107397 C11.4890195,4.01010898 11.4890195,4.00962648 11.4884849,4.00866148 L10.8683541,3.2241193 Z" id="Fill-6691" fill="#0C0A09"></path>
                    <path d="M12.2248724,3.63076201 C12.2244177,3.63030216 12.2235082,3.63030216 12.2230535,3.63030216 C12.222144,3.63076201 12.2216893,3.63076201 12.2212345,3.6316817 C12.2034998,3.68042541 12.1930408,3.70065864 12.1698493,3.72778957 C12.1266493,3.77929235 12.0670787,3.81148158 12.0020514,3.81837928 C11.9934114,3.81929897 11.9847714,3.81975882 11.9761314,3.81975882 C11.7587672,3.81975882 11.7132935,3.59995231 11.703744,3.50568383 C11.6837356,3.30473102 11.7792303,3.15895976 11.9415714,3.1424053 C11.9506661,3.14148561 11.9597608,3.14102576 11.9688556,3.14102576 C12.1002745,3.14102576 12.1493861,3.24357147 12.1757608,3.29829318 L12.1757608,3.29921287 C12.1762156,3.29967271 12.1766703,3.30013256 12.1775798,3.30013256 C12.1784893,3.30059241 12.1784893,3.30013256 12.178944,3.29967271 L12.2589777,3.21552085 C12.2594324,3.21460116 12.2594324,3.21368147 12.2594324,3.21322162 C12.256704,3.20540423 12.1898577,3.0320422 11.9693103,3.0320422 C11.954304,3.0320422 11.9392977,3.03250205 11.9238366,3.03434143 C11.8096977,3.04583759 11.7164766,3.10055929 11.6546324,3.19160885 C11.5923335,3.28311825 11.5664135,3.40359797 11.5800556,3.53925261 C11.5836935,3.57925923 11.6282577,3.92690299 11.9620345,3.92690299 C11.9788598,3.92690299 11.9965945,3.9259833 12.0143293,3.92414391 C12.2244177,3.90345083 12.2858072,3.76595681 12.3112724,3.70755633 C12.3117272,3.70663664 12.3117272,3.70571695 12.3108177,3.7052571 L12.2248724,3.63076201 Z" id="Fill-6692" fill="#0C0A09"></path>
                    <path d="M12.9404579,3.61254944 L13.1325888,3.18586465 L13.3142493,3.61726708 L12.9404579,3.61254944 Z M13.1933168,3.00606996 L13.0770959,3.00449741 C13.0760489,3.00449741 13.0750018,3.00502159 13.0744783,3.00606996 L12.6431,3.96008263 C12.6425765,3.96113099 12.6425765,3.96217936 12.6431,3.96270354 C12.6436235,3.96322772 12.644147,3.96375191 12.6451941,3.96375191 L12.779738,3.96584864 C12.7802616,3.96584864 12.7813086,3.96480027 12.7813086,3.96427609 L12.8865356,3.73468403 L13.3660775,3.74097422 L13.4655458,3.97213883 C13.4660693,3.9731872 13.4665928,3.97371138 13.4671164,3.97371138 L13.6000898,3.97528393 C13.6011368,3.97528393 13.6016603,3.97528393 13.6021839,3.97423556 C13.6027074,3.97371138 13.6027074,3.97266301 13.6027074,3.97213883 L13.1959344,3.00764251 C13.1954108,3.00659414 13.1943638,3.00606996 13.1933168,3.00606996 L13.1933168,3.00606996 Z" id="Fill-6693" fill="#0C0A09"></path>
                    <path d="M14.5578872,3.44190827 C14.5559836,3.44287905 14.5553491,3.44384984 14.55408,3.44482063 C14.5394859,3.45355771 14.5223537,3.45986782 14.5033179,3.46472175 C14.4995107,3.46569254 14.4963381,3.46666332 14.4938,3.46763411 C14.4728606,3.47200265 14.4506522,3.47442962 14.4252711,3.47442962 L14.4157532,3.47442962 C14.4024281,3.47442962 14.3871995,3.47394422 14.3719708,3.47200265 L14.0731088,3.44433523 L14.1168911,3.17008804 L14.4030627,3.19678467 C14.4233675,3.19921164 14.4424033,3.2016386 14.4601701,3.20503636 C14.4620736,3.20552175 14.4639772,3.20552175 14.4652463,3.20600714 C14.4957035,3.21183186 14.5217191,3.22105433 14.5432931,3.23173299 C14.5471002,3.23367456 14.5521764,3.23513074 14.5559836,3.23755771 C14.5667705,3.24338242 14.5750194,3.25017793 14.5826337,3.25745883 C14.5845373,3.25891501 14.5851718,3.26134198 14.5870754,3.26279815 C14.6099184,3.28706782 14.6188017,3.31764759 14.613091,3.35502287 C14.6067457,3.39288355 14.5877099,3.42200714 14.5578872,3.44190827 M14.4614391,3.09339591 L13.972219,3.04776894 L13.9703155,3.04825433 C13.9696809,3.04873973 13.9696809,3.04922512 13.9690464,3.04971051 L13.8275469,3.93069928 C13.8275469,3.93215546 13.8281815,3.93312624 13.8300851,3.93361164 L13.9880822,3.94865883 L13.9887167,3.94865883 C13.9899858,3.94865883 13.9918894,3.94817344 13.9918894,3.94671726 L14.0547075,3.55257793 L14.3370719,3.57975995 L14.5515419,4.00011051 C14.5515419,4.0010813 14.552811,4.00156669 14.55408,4.00156669 L14.7241332,4.01855546 C14.7254022,4.01855546 14.7260367,4.01807007 14.7266713,4.01758467 C14.7273058,4.01661389 14.7273058,4.01612849 14.7273058,4.01515771 L14.5064905,3.57587681 C14.6797163,3.5550049 14.7660119,3.49141838 14.7850477,3.37104085 C14.8078907,3.23027681 14.672102,3.11378242 14.4614391,3.09339591" id="Fill-6694" fill="#0C0A09"></path>
                    <path d="M15.657133,3.80422446 C15.6120379,3.97378132 15.5009501,4.07081097 15.3535662,4.07081097 C15.327719,4.07081097 15.3013219,4.06787068 15.2738249,4.06199009 L15.0335011,4.01102502 L15.2078321,3.35730003 L15.437707,3.40581485 C15.5273472,3.42492675 15.5861908,3.45825007 15.6241366,3.51117533 C15.6763809,3.58223239 15.6884796,3.68661277 15.657133,3.80422446 M15.465204,3.29408374 L15.1005938,3.21763614 L15.1000438,3.21763614 C15.0989439,3.21763614 15.0978441,3.21812619 15.0972941,3.21910629 L14.8641196,4.09139301 C14.8641196,4.09237311 14.8641196,4.09286316 14.8646695,4.09335321 C14.8646695,4.09384326 14.8657694,4.09433331 14.8663193,4.09433331 L15.2485276,4.17519135 C15.2903231,4.18401222 15.3315686,4.18842266 15.3722641,4.18842266 C15.5872906,4.18842266 15.7456734,4.05757965 15.8061668,3.82921695 C15.8430127,3.69249336 15.8226649,3.5601802 15.7495229,3.45776002 C15.6928791,3.37543183 15.602689,3.32348667 15.465204,3.29408374" id="Fill-6695" fill="#0C0A09"></path>
                    <path d="M16.5142232,3.33604655 L16.3882611,3.2937407 C16.3873516,3.29328085 16.3864421,3.29328085 16.3859874,3.29420054 L16.2650274,3.42065826 C16.2645726,3.42111811 16.2645726,3.4220378 16.2645726,3.42295749 C16.2650274,3.42341734 16.2650274,3.42433703 16.2654821,3.42433703 L16.3464253,3.45100811 L16.34688,3.45146796 C16.3473347,3.45146796 16.3477895,3.45100811 16.3482442,3.45100811 L16.5146779,3.34018517 C16.5155874,3.33972532 16.5155874,3.33880563 16.5155874,3.33788594 C16.5155874,3.33696624 16.5151326,3.3365064 16.5142232,3.33604655" id="Fill-6696" fill="#0C0A09"></path>
                    <path d="M16.3305549,3.57066011 L16.2223276,3.53387241 C16.2209634,3.53341256 16.2200539,3.53433225 16.2195992,3.53525195 L15.9567613,4.33400487 C15.9563065,4.33446472 15.9563065,4.33492457 15.9567613,4.33538441 C15.9567613,4.33584426 15.957216,4.3363041 15.9581255,4.33676395 L16.0663528,4.3730918 L16.0668076,4.37355165 C16.0681718,4.37355165 16.0686265,4.37263196 16.0690813,4.37217211 L16.3319192,3.57341918 C16.3323739,3.57295934 16.3323739,3.57203965 16.3319192,3.5715798 C16.3314644,3.57111995 16.3310097,3.57066011 16.3305549,3.57066011" id="Fill-6697" fill="#0C0A09"></path>
                    <path d="M6.80295411,20.3833286 C6.80295411,20.3824089 6.80249937,20.381949 6.80204463,20.3814892 L6.676992,20.2559512 C6.67653726,20.2550315 6.67517305,20.2550315 6.67426358,20.2554913 L6.05627621,20.5911791 L6.383232,19.9625693 C6.38368674,19.9616496 6.383232,19.9607299 6.383232,19.96027 L6.25681516,19.8338123 C6.25636042,19.8333525 6.25590568,19.8333525 6.25545095,19.8333525 C6.25499621,19.8333525 6.25408674,19.8333525 6.25408674,19.8338123 L5.66747621,20.4302329 C5.66656674,20.4311526 5.66656674,20.4325321 5.66747621,20.4334518 L5.74023411,20.5070272 C5.74023411,20.5074871 5.74114358,20.5074871 5.74159832,20.5074871 C5.74205305,20.5074871 5.74296253,20.5074871 5.74341726,20.5070272 L6.25454147,19.9864813 L5.90030147,20.6656742 C5.89984674,20.6665939 5.89984674,20.6675136 5.90075621,20.6679734 L5.97988042,20.7484465 C5.98033516,20.7489064 5.98169937,20.7493662 5.98260884,20.7489064 L6.651072,20.385168 L6.13994779,20.9052541 C6.13903832,20.9061738 6.13903832,20.9075533 6.13994779,20.908473 L6.21270568,20.9815886 C6.21316042,20.9820484 6.21361516,20.9825082 6.21406989,20.9825082 C6.21497937,20.9825082 6.21543411,20.9820484 6.21543411,20.9815886 L6.80204463,20.3847081 C6.80249937,20.3842483 6.80295411,20.3837884 6.80295411,20.3833286" id="Fill-6698" fill="#0C0A09"></path>
                    <path d="M6.97641536,21.1988125 L7.36390091,20.9981127 L7.25687165,21.4009093 L6.97641536,21.1988125 Z M7.42385711,20.8388566 C7.4228661,20.838391 7.42187509,20.838391 7.42137958,20.8388566 L6.55424441,21.2877537 C6.5532534,21.2877537 6.55275789,21.288685 6.55275789,21.2896164 C6.55275789,21.290082 6.5532534,21.2910134 6.55374891,21.291479 L6.65483209,21.3641221 C6.6553276,21.3641221 6.65631861,21.3641221 6.65730962,21.3641221 L6.86542206,21.2570201 L7.2271413,21.5168589 L7.17065364,21.7343225 C7.17065364,21.7352538 7.17065364,21.7361852 7.17164465,21.7366508 L7.27124132,21.8088282 C7.27173683,21.8092939 7.27223233,21.8092939 7.27272784,21.8092939 L7.27371885,21.8092939 C7.27421435,21.8088282 7.27520537,21.8083626 7.27520537,21.8074313 L7.51255265,20.9045148 C7.51304816,20.9035835 7.51255265,20.9026522 7.51205714,20.9026522 L7.42385711,20.8388566 Z" id="Fill-6699" fill="#0C0A09"></path>
                    <path d="M8.38454121,21.7653965 C8.38003315,21.7732139 8.37352152,21.7801116 8.36801167,21.7860896 C8.3645054,21.7897683 8.36150003,21.7934471 8.35799376,21.7962062 C8.34697407,21.8072425 8.3334499,21.8146 8.31992573,21.8201182 C8.31491677,21.8224174 8.30990782,21.8247166 8.30439797,21.8260962 C8.29488096,21.8283954 8.28536396,21.8293151 8.27484516,21.8297749 C8.27234068,21.8297749 8.2698362,21.8293151 8.26783262,21.8293151 C8.23527443,21.8283954 8.19971087,21.8178189 8.16114194,21.7971259 L7.95727758,21.6853832 L8.10303809,21.4600586 L8.29838723,21.5672027 C8.35799376,21.599392 8.39355732,21.6348001 8.40457702,21.6729674 C8.41209045,21.7023975 8.40607971,21.7327474 8.38454121,21.7653965 M8.38454121,21.494547 L8.0499432,21.3119881 C8.04844051,21.3115282 8.04693783,21.3115282 8.04643693,21.3129078 L7.57709811,22.0357861 C7.57709811,22.0362459 7.57709811,22.0371656 7.57709811,22.0376255 C7.57709811,22.0380853 7.5780999,22.0385451 7.57860079,22.039005 L7.68679416,22.0978653 C7.68779595,22.098785 7.68929864,22.0983252 7.68979953,22.0974055 L7.89917374,21.7741336 L8.09302019,21.8794383 L8.07198259,22.3075552 C8.07198259,22.3084749 8.07248348,22.3093946 8.07348527,22.3093946 L8.18919207,22.3723935 C8.18969297,22.3728534 8.19019386,22.3728534 8.19019386,22.3728534 L8.19119565,22.3728534 C8.19169655,22.3723935 8.19219744,22.3714738 8.19219744,22.3705541 L8.21624041,21.9263427 C8.22876279,21.9295616 8.2387807,21.9291017 8.25030129,21.9304813 C8.25881651,21.9318608 8.26733173,21.9332404 8.27534605,21.93416 C8.28686664,21.9350797 8.30039081,21.9382987 8.31090961,21.9382987 C8.39305643,21.9382987 8.45366475,21.9038102 8.50225159,21.8297749 C8.57738587,21.7138937 8.52779725,21.5736406 8.38454121,21.494547" id="Fill-6700" fill="#0C0A09"></path>
                    <path d="M9.21678821,21.943403 C9.16585768,21.9199508 9.11310821,21.9079948 9.059904,21.9079948 C8.89892716,21.9079948 8.75295663,22.0197374 8.66928505,22.2073547 C8.65155032,22.2478212 8.506944,22.6023626 8.85618189,22.7605497 C8.91120505,22.7858413 8.96531874,22.798717 9.01624926,22.798717 C9.11629137,22.798717 9.18450189,22.7495134 9.22088084,22.7233022 C9.22179032,22.7228423 9.22224505,22.7214628 9.22179032,22.7205431 L9.18359242,22.6124792 C9.18313768,22.6115596 9.18268295,22.6110997 9.18177347,22.6110997 C9.18131874,22.6106399 9.18040926,22.6110997 9.17995453,22.6115596 C9.13993768,22.6451283 9.12083874,22.6570843 9.08764295,22.6690403 C9.05899453,22.6791569 9.02989137,22.6846751 9.00033347,22.6846751 C8.96531874,22.6846751 8.930304,22.6768577 8.89756295,22.6621426 C8.84072084,22.6363912 8.66610189,22.5287872 8.79342821,22.2409235 C8.85390821,22.1038893 8.95849768,22.0220367 9.07218189,22.0220367 C9.10810611,22.0220367 9.14357558,22.0298541 9.17859032,22.0464085 C9.31864926,22.1094075 9.30955453,22.2331061 9.30409768,22.2997838 C9.30409768,22.3007035 9.30455242,22.3011633 9.30500716,22.3016232 C9.30546189,22.302083 9.30682611,22.302083 9.30682611,22.302083 L9.41778189,22.2694339 C9.41869137,22.2689741 9.41914611,22.2685143 9.41960084,22.2675946 C9.42096505,22.2583976 9.45097768,22.0496274 9.21678821,21.943403" id="Fill-6701" fill="#0C0A09"></path>
                    <path d="M10.3061166,22.9030452 L9.93292474,22.8027484 L10.2535081,22.4858483 L10.3061166,22.9030452 Z M10.3680413,22.3459979 L10.2518641,22.31492 C10.2507681,22.3144491 10.25022,22.3144491 10.249672,22.3153909 L9.53068853,23.0259441 C9.53014053,23.0264149 9.52959252,23.0273567 9.53014053,23.0282984 C9.53014053,23.0287693 9.53068853,23.0292402 9.53123654,23.0292402 L9.66549794,23.0659686 C9.66604595,23.0659686 9.66768996,23.0659686 9.66823797,23.0650268 L9.84195579,22.8945694 L10.3220088,23.0235897 L10.3516011,23.2481979 C10.3521491,23.2491397 10.3526971,23.2496106 10.3537931,23.2500814 L10.4864105,23.2853972 L10.4869585,23.2853972 C10.4875065,23.2853972 10.4886025,23.2853972 10.4886025,23.2849263 C10.4896986,23.2844554 10.4902466,23.2835137 10.4896986,23.2825719 L10.3702333,22.3478814 C10.3696853,22.3469396 10.3691373,22.3464687 10.3680413,22.3459979 L10.3680413,22.3459979 Z" id="Fill-6702" fill="#0C0A09"></path>
                    <path d="M11.6081905,22.7682424 L11.8562491,22.7940424 C11.9540751,22.8036541 12.020457,22.8319835 12.0676231,22.8820657 C12.1322581,22.949348 12.1584615,23.0550772 12.1421571,23.1790182 C12.1147892,23.3742884 11.9977474,23.4860882 11.8195644,23.4860882 C11.805007,23.4860882 11.7892849,23.4855823 11.7741452,23.4840647 L11.5138583,23.457253 L11.6081905,22.7682424 Z M11.8708066,22.6766779 L11.476009,22.6357015 C11.4748444,22.6357015 11.4736798,22.6367132 11.4736798,22.6382309 L11.3473213,23.5574175 C11.3473213,23.5584293 11.3473213,23.5589351 11.3479036,23.559441 C11.3484859,23.5599469 11.3490682,23.5599469 11.3496505,23.5604528 L11.761917,23.6024409 C11.7863735,23.6049704 11.8108299,23.606488 11.8335395,23.606488 C12.0914973,23.606488 12.2656042,23.4501706 12.3022889,23.1891358 C12.322087,23.0449596 12.2830731,22.9119128 12.1922347,22.8147835 C12.1211944,22.735866 12.0192924,22.6918543 11.8708066,22.6766779 L11.8708066,22.6766779 Z" id="Fill-6703" fill="#0C0A09"></path>
                    <path d="M13.0167966,22.8424024 C13.0177061,22.8424024 13.0186156,22.8419425 13.0190703,22.8410228 L13.0504472,22.741696 C13.0504472,22.7407763 13.0504472,22.7398567 13.0499924,22.7393968 C13.0495377,22.7393968 13.0490829,22.738937 13.0481735,22.738937 L12.5302282,22.7366377 C12.5293187,22.7366377 12.5279545,22.7375574 12.5279545,22.738937 L12.5234072,23.5799957 C12.5234072,23.5804556 12.5234072,23.5809154 12.5238619,23.5813753 C12.5243166,23.5818351 12.5247714,23.582295 12.5256808,23.582295 L13.047264,23.5850541 C13.0486282,23.5850541 13.0495377,23.5841344 13.0495377,23.5827548 C13.0495377,23.582295 13.0495377,23.5818351 13.0490829,23.5813753 L13.0163419,23.4811288 C13.0158872,23.4802091 13.0154324,23.4802091 13.0145229,23.4802091 L12.6416387,23.4779099 L12.6430029,23.1987832 L12.9836008,23.2006226 C12.9845103,23.2006226 12.9849651,23.2001627 12.9854198,23.2001627 C12.9858745,23.1997029 12.9858745,23.1987832 12.9858745,23.1983234 L12.9863293,23.097617 C12.9863293,23.0966973 12.9854198,23.0957776 12.9840556,23.0957776 L12.6434577,23.0943981 L12.6452766,22.840563 L13.0167966,22.8424024 Z" id="Fill-6704" fill="#0C0A09"></path>
                    <path d="M14.4003789,22.705782 L14.4294821,22.5967985 C14.4299368,22.5958788 14.4294821,22.5949591 14.4290274,22.5944993 C14.4285726,22.5940394 14.4281179,22.5940394 14.4276632,22.5940394 L13.9138105,22.6717534 C13.9129011,22.6722133 13.9119916,22.673133 13.9119916,22.6745125 L14.03568,23.5063744 C14.03568,23.5077539 14.0365895,23.5082137 14.0370442,23.5082137 L14.0374989,23.5082137 L14.1511832,23.4907396 C14.1516379,23.4907396 14.1516379,23.4907396 14.1520926,23.4902797 C14.1520926,23.4898199 14.1525474,23.48936 14.1525474,23.4889002 L14.0975242,23.1191838 L14.4003789,23.073659 C14.4012884,23.073659 14.4017432,23.0731992 14.4021979,23.0727393 C14.4021979,23.0722795 14.4026526,23.0718197 14.4026526,23.0713598 L14.3871916,22.9678944 C14.3867368,22.9669747 14.3867368,22.9665149 14.3862821,22.9665149 C14.3858274,22.966055 14.3853726,22.9655952 14.3849179,22.966055 L14.0820632,23.0124995 L14.0447747,22.7609636 L14.39856,22.7076214 C14.3994695,22.7076214 14.4003789,22.7067017 14.4003789,22.705782" id="Fill-6705" fill="#0C0A09"></path>
                    <path d="M15.075072,22.3842576 L15.0755267,22.3842576 L15.1569246,22.3621849 C15.1573794,22.3621849 15.1578341,22.3617251 15.1582888,22.3608054 L15.2365036,22.1750275 C15.2374131,22.1745677 15.2365036,22.173648 15.2360488,22.1731881 C15.2360488,22.1722684 15.2351394,22.1718086 15.2342299,22.1722684 L15.1059941,22.2067569 C15.1050846,22.2072167 15.1046299,22.2076766 15.1041752,22.2085963 L15.0727983,22.3814985 C15.0727983,22.3824182 15.0727983,22.3833379 15.0732531,22.3837977 C15.0737078,22.3842576 15.0741625,22.3842576 15.075072,22.3842576" id="Fill-6706" fill="#0C0A09"></path>
                    <path d="M15.5241113,22.9171583 L15.1510126,23.0046159 L15.2235746,22.5849143 L15.5241113,22.9171583 Z M15.2360293,22.4138016 C15.2354878,22.4133262 15.2338633,22.4128509 15.2333218,22.4133262 L15.1163561,22.4408944 C15.1158146,22.4413697 15.1147316,22.441845 15.1147316,22.4427957 L14.9517378,23.3815393 C14.9511963,23.3820146 14.9517378,23.3829653 14.9522793,23.3834406 C14.9528209,23.3839159 14.9533624,23.3839159 14.9544454,23.3839159 L14.9549869,23.3839159 L15.0887392,23.3525452 C15.0898223,23.3525452 15.0903638,23.3515946 15.0909053,23.3506439 L15.1309768,23.1253455 L15.610211,23.0122209 L15.7737463,23.1899881 C15.7748293,23.1904634 15.7759123,23.1909387 15.7769954,23.1904634 L15.9096647,23.159568 C15.9102062,23.159568 15.9112892,23.1586174 15.9112892,23.1581421 C15.9118307,23.1571915 15.9112892,23.1562408 15.9107477,23.1557655 L15.2360293,22.4138016 Z" id="Fill-6707" fill="#0C0A09"></path>
                    <path d="M16.4103227,22.3882282 C16.3975649,22.3939387 16.3842756,22.3996492 16.3693916,22.4044079 L16.1764309,22.4748375 L16.0727743,22.2445137 L16.2848716,22.1678977 C16.3226132,22.1545732 16.3566339,22.147435 16.3858703,22.1469592 C16.3890598,22.1469592 16.3911861,22.147435 16.3933124,22.147435 C16.4167015,22.1479109 16.4363697,22.1531455 16.45338,22.1621872 C16.4555063,22.1636148 16.4576326,22.1636148 16.4597589,22.1650424 C16.4677325,22.1707529 16.4757061,22.1774152 16.4826165,22.1850292 C16.4842112,22.1869327 16.4858059,22.1893121 16.4868691,22.1907397 C16.4932479,22.1988296 16.4985637,22.2073954 16.5028162,22.2173888 C16.5208897,22.2568865 16.5187634,22.2925771 16.4964374,22.3235091 C16.4927164,22.3296954 16.4868691,22.335406 16.4815534,22.3406406 C16.4778323,22.3439717 16.4735798,22.3477787 16.4687956,22.3515857 C16.4544432,22.3639585 16.4363697,22.3753795 16.4140437,22.3863247 C16.4129805,22.3868005 16.4113858,22.3872764 16.4103227,22.3882282 L16.4103227,22.3882282 Z M16.350255,22.8612486 L16.2210829,22.5738197 L16.4363697,22.496252 C16.4778323,22.4814998 16.515574,22.4738858 16.5495946,22.4738858 C16.6213569,22.4738858 16.6729194,22.5071971 16.7026874,22.5738197 C16.7191662,22.610938 16.7202293,22.6456769 16.7042821,22.6775606 C16.6835508,22.7213412 16.6325199,22.7594112 16.5554419,22.787012 L16.350255,22.8612486 Z M16.7361765,22.4243947 C16.6963086,22.4044079 16.6585669,22.3967939 16.6101938,22.3967939 C16.5894625,22.3967939 16.5650102,22.3982215 16.5368369,22.4010768 C16.5820205,22.3668138 16.688335,22.277825 16.6319883,22.151242 C16.618699,22.1241171 16.5979677,22.101751 16.5745785,22.0836677 L16.5735154,22.0827159 C16.5336474,22.0522599 16.4820849,22.0341766 16.4188278,22.0341766 C16.36886,22.0341766 16.3162344,22.04417 16.262014,22.0636809 L15.9026712,22.1926432 C15.901608,22.1931191 15.9005449,22.1945467 15.9010764,22.1954985 L16.2646719,23.0035355 C16.2652034,23.0044872 16.265735,23.0049631 16.2667982,23.0049631 L16.2678613,23.0044872 L16.6633511,22.8626763 C16.8307963,22.8022401 16.9009639,22.6694707 16.8382383,22.5314668 C16.8164439,22.4824516 16.7824233,22.4467609 16.7361765,22.4243947 L16.7361765,22.4243947 Z" id="Fill-6708" fill="#0C0A09"></path>
                    <path d="M17.2518973,21.6973904 C17.2614467,21.697859 17.2700867,21.698796 17.2787267,21.7016072 C17.2837288,21.7030128 17.2882762,21.7058239 17.2932783,21.707698 C17.3055562,21.7133203 17.3173794,21.7217538 17.3269288,21.7329984 C17.330112,21.7358096 17.3323857,21.7395578 17.3351141,21.743306 C17.3401162,21.7493969 17.3455731,21.7568933 17.3501204,21.7653268 C17.3701288,21.8032774 17.3737667,21.840291 17.3605794,21.8735563 C17.3478467,21.9063532 17.3178341,21.9363389 17.2728152,21.9611708 L17.0827352,22.0675262 L16.9599562,21.8327945 L17.1418509,21.7311243 C17.1795941,21.7100407 17.2136994,21.6992645 17.2428025,21.6983275 C17.2459857,21.697859 17.2491688,21.6973904 17.2518973,21.6973904 L17.2518973,21.6973904 Z M17.4083267,21.9845971 C17.4979099,21.8941715 17.5138257,21.8074941 17.459712,21.7048869 C17.4196952,21.6289856 17.3483015,21.5854127 17.2623562,21.5854127 C17.2496236,21.5854127 17.2364362,21.5891609 17.2241583,21.591035 C17.2223394,21.5915035 17.2209752,21.5915035 17.2191562,21.591972 C17.1859604,21.5966573 17.1518552,21.6069649 17.1195688,21.6247689 L16.8089836,21.7976551 C16.8085288,21.7981236 16.8080741,21.7985921 16.8080741,21.7995292 L16.8080741,21.8009348 L17.2041499,22.5547936 C17.2046046,22.5557306 17.2055141,22.5561992 17.2059688,22.5561992 C17.2059688,22.5561992 17.2064236,22.5561992 17.2068783,22.5557306 L17.3073752,22.499976 C17.3078299,22.4995075 17.3082846,22.499039 17.3082846,22.4985704 C17.3087394,22.4981019 17.3087394,22.4971649 17.3082846,22.4966963 L17.131392,22.1602944 L17.3114678,22.0600298 L17.6647983,22.2999153 C17.6652531,22.3003838 17.6661625,22.3003838 17.667072,22.2999153 L17.7743899,22.2399439 C17.7748446,22.2394754 17.7752994,22.2390069 17.7752994,22.2380698 C17.7752994,22.2371328 17.7752994,22.2366642 17.7743899,22.2361957 L17.4083267,21.9845971 Z" id="Fill-6709" fill="#0C0A09"></path>
                    <path d="M17.7976724,21.2071431 L17.7021777,21.2715216 C17.7012682,21.2719815 17.7008135,21.273361 17.7017229,21.2738208 L18.1614619,21.9755462 C18.1614619,21.9764659 18.1619166,21.9769257 18.1623714,21.9769257 C18.1628261,21.9769257 18.1632808,21.9764659 18.1637356,21.9764659 L18.2592303,21.9125473 C18.2601398,21.9120874 18.2605945,21.9107079 18.2596851,21.9097882 L17.8008556,21.2080628 C17.7999461,21.2066833 17.7985819,21.2066833 17.7976724,21.2071431" id="Fill-6710" fill="#0C0A09"></path>
                    <path d="M19.2367694,21.1070858 L19.1078189,21.0907786 C19.1072968,21.0907786 19.1062527,21.0907786 19.1057306,21.0912882 C19.1052086,21.0917978 19.1052086,21.092817 19.1052086,21.0938362 C19.1182602,21.1498921 19.1203485,21.1743529 19.1151278,21.2146112 C19.1057306,21.2890127 19.069186,21.3537318 19.0096703,21.4011245 C18.9840891,21.4204893 18.9167425,21.4658436 18.826947,21.4658436 C18.7235778,21.4658436 18.623341,21.4082589 18.5288469,21.2930895 C18.4588899,21.2074768 18.4213011,21.1167682 18.4223453,21.0291171 C18.4233894,20.9419756 18.4615003,20.866555 18.5330234,20.810499 C18.5805315,20.7732983 18.631172,20.7544431 18.6828566,20.7544431 C18.7554238,20.7544431 18.8144174,20.7890959 18.8535724,20.8120278 L18.8546165,20.8125374 C18.8556607,20.813047 18.8567048,20.813047 18.8572269,20.8125374 C18.8577489,20.8125374 18.8587931,20.8120278 18.8587931,20.8110086 L18.8833302,20.6841184 C18.8833302,20.6830992 18.8833302,20.68208 18.8822861,20.68208 C18.8749771,20.6764745 18.803976,20.6275529 18.6974744,20.6275529 C18.6113334,20.6275529 18.5278027,20.6591481 18.4489707,20.7213192 C18.3461235,20.8013263 18.2902624,20.9088517 18.28713,21.0316651 C18.2834755,21.1544785 18.3330718,21.2823879 18.4306983,21.4001053 C18.4583679,21.4337389 18.6045466,21.5983394 18.8097188,21.5983394 C18.9047349,21.5983394 18.9976628,21.5621579 19.0874583,21.4923428 C19.2764465,21.3440494 19.2503431,21.1794489 19.2388576,21.1091242 C19.2388576,21.108105 19.2378135,21.1070858 19.2367694,21.1070858" id="Fill-6711" fill="#0C0A09"></path>
                    <path d="M19.7158783,20.2914676 L19.4808341,20.5367939 L19.321778,20.1387988 L19.7158783,20.2914676 Z M20.1269698,20.3236337 L19.2453178,19.9851698 C19.2439019,19.9842096 19.2434299,19.9846897 19.242958,19.9856499 L19.1688577,20.0619843 C19.1683857,20.0624644 19.1683857,20.0634246 19.1683857,20.0643847 L19.521896,20.9535126 C19.522368,20.9544727 19.52284,20.9549528 19.5237839,20.9554329 L19.5242559,20.9554329 C19.5247279,20.9554329 19.5251998,20.9549528 19.5256718,20.9544727 L19.6101556,20.8661361 C19.6106276,20.865656 19.6106276,20.8646958 19.6106276,20.8642157 L19.5270877,20.6500953 L19.8291526,20.3351559 L20.041542,20.415331 C20.042486,20.4158111 20.042958,20.415331 20.0439019,20.4148509 L20.1274417,20.3274744 C20.1279137,20.3269943 20.1283857,20.3260341 20.1283857,20.325554 C20.1279137,20.3245939 20.1274417,20.3241138 20.1269698,20.3236337 L20.1269698,20.3236337 Z" id="Fill-6712" fill="#0C0A09"></path>
                    <path d="M4.72276042,18.4747827 C4.72276042,18.4747827 4.14888253,16.8781966 4.49311832,16.3847815 C4.83780884,15.8909067 5.32574147,16.2298134 5.32574147,16.2298134 C5.32574147,16.2298134 5.23024674,14.8944199 5.95737095,14.3426044 C6.68494989,13.7907889 7.56532042,14.6810512 7.56532042,14.6810512 C7.56532042,14.6810512 7.84270989,13.829416 8.68533726,13.5199394 C9.52705516,13.2104629 10.3305752,14.1007253 10.4838215,14.7394517 C10.6370678,15.3781781 10.4460783,16.0265613 10.3596783,16.2298134 C10.2732783,16.4326056 10.5224741,16.1718727 10.5224741,16.1718727 C10.5224741,16.1718727 10.742112,15.5326865 10.8858088,15.4554323 C11.0299604,15.3781781 11.6711394,15.5326865 11.804832,16.1718727 C11.9389794,16.8101393 12.2259183,17.3426413 12.426912,17.681548 C12.6279057,18.0199948 13.0298931,18.503753 13.0298931,18.503753 C13.0298931,18.503753 13.6515183,17.9717109 13.9002594,17.1007622 C14.1494552,16.2298134 14.4654973,15.677538 14.8192825,15.4747458 C15.1735225,15.2714938 15.4031646,15.7363983 15.4604615,16.1520993 C15.5177583,16.5682602 15.6901036,16.2298134 15.6901036,16.2298134 C15.6901036,16.2298134 15.3845204,15.5616568 15.5564109,14.8843033 C15.7287562,14.2069497 16.2644362,13.5006259 16.8387688,13.4035983 C17.4131015,13.3070306 18.3030215,13.7618186 18.4176152,14.6713944 C18.4176152,14.6713944 18.8964531,14.1678628 19.7481752,14.197293 C20.5998973,14.2267231 20.7149457,15.755252 20.6576488,16.0936989 C20.6576488,16.0936989 21.671712,16.123129 21.7103646,16.7623153 C21.7485625,17.4005819 21.2988278,18.5331832 21.2988278,18.5331832 C21.2988278,18.5331832 22.3228952,17.5072662 22.6093794,15.3685213 C22.8967731,13.2297765 22.734432,11.8746096 22.4565878,10.4040213 C22.1787436,8.93251331 21.2415309,7.23889959 20.9636867,6.78411165 C20.6858425,6.32932371 20.513952,6.22263938 20.6094467,6.15504199 C20.7049415,6.08744459 20.9254888,6.01984719 20.9254888,6.01984719 C20.9254888,6.01984719 20.5616994,5.74899775 20.1406131,5.89384932 C19.7195267,6.03916073 18.6286131,6.71651425 18.6286131,6.71651425 C18.6286131,6.71651425 15.7383057,9.24244967 15.5946088,9.39741786 C15.4513667,9.5519262 15.0684783,9.36844755 15.0398299,9.34867416 C15.0111815,9.32936062 14.1208067,8.66166387 14.0057583,8.35218734 C13.8916194,8.04179113 13.8816152,7.88774264 14.0630552,7.53871934 C14.2454046,7.19061573 14.4463983,6.64845701 14.2167562,6.3679508 C13.9866594,6.08744459 13.3263815,6.79422827 13.0394425,6.98736369 L12.5606046,6.88113921 C12.5606046,6.88113921 12.0826762,6.22263938 11.6802341,6.21298261 C11.6802341,6.21298261 11.6138425,6.3003534 11.6611352,6.41623465 C11.7093373,6.53211591 11.7475352,6.85216889 11.7475352,6.85216889 L11.9767225,7.3354673 L11.8234762,7.65506044 C11.8234762,7.65506044 11.8080152,7.76174477 11.4569583,7.82612324 C11.1063562,7.89050171 11.1763857,8.0454699 11.1954846,8.20687593 C11.2145836,8.36782212 11.2341373,8.4133469 11.3105331,8.46484967 C11.3869288,8.51635245 11.5465415,8.69063418 11.7502636,8.69707203 C11.9544404,8.70350988 12.1586173,8.58762862 12.2100025,8.79409959 C12.2613878,9.00057055 11.4383141,9.36844755 11.4383141,9.36844755 L11.2596025,9.58089651 L10.4424404,9.46501526 C10.4424404,9.46501526 8.58938779,7.17130219 7.00053726,6.47463513 L6.34980884,6.13572844 C6.34980884,6.13572844 5.90007411,5.85476239 5.68953095,5.87453578 C5.47853305,5.89384932 5.10564884,6.02904412 5.10564884,6.02904412 C5.10564884,6.02904412 5.38622147,6.10032028 5.40895832,6.20056677 C5.43124042,6.3003534 5.08654989,6.69720071 5.08654989,6.69720071 C5.08654989,6.69720071 3.61274779,9.40661478 3.32580884,11.5844466 C3.03841516,13.7618186 3.20121095,16.8101393 4.72276042,18.4747827" id="Fill-6713" fill="#FFFFFE"></path>
                    <path d="M22.3354004,12.0133452 C22.0161752,8.78108594 20.535552,6.5871595 20.4850762,6.61934874 C20.4514257,6.64050167 21.2881415,8.57875359 21.3913667,11.2716132 C21.4682173,13.5878587 20.7979352,15.9234178 20.7397288,15.8972066 C20.6828867,15.871915 21.1680909,14.0844927 21.1162509,11.2711534 C21.0721415,9.09746015 20.2490678,6.50990533 20.1981373,6.51634318 C20.146752,6.52278103 20.2618004,8.66474484 19.7324867,11.1037693 C19.2027183,13.542334 18.4755941,14.5489374 18.4369415,14.5162883 C18.3987436,14.4845589 19.1836194,12.8001421 19.5810594,10.4650429 C19.9707688,8.21317582 20.0003267,6.54899226 19.9493962,6.54209457 C19.8980109,6.53565672 18.5392573,8.2587006 16.9440404,10.7492279 C16.9440404,10.7492279 16.8421794,10.8908605 16.7016657,10.877525 C16.561152,10.8651091 15.8849583,10.7101409 15.852672,10.6066755 C15.852672,10.6066755 16.4274594,10.6213906 16.6139015,10.5823037 C16.7575983,10.5731068 16.8389962,10.4613641 16.8389962,10.4613641 C16.8389962,10.4613641 17.4706257,9.41659345 17.6907183,9.12643047 C17.6907183,9.12643047 17.0872825,9.74584336 16.8676446,10.0452033 C16.6666509,10.3261693 16.5134046,10.2778855 16.5134046,10.2778855 C16.2983141,10.2631704 15.5661878,10.0990053 15.3888404,9.86172461 C15.3124446,9.75504028 15.2355941,9.6249038 15.2355941,9.6249038 C15.2355941,9.6249038 15.5752825,9.68790273 16.1159646,9.94403709 C16.6566467,10.2001714 16.6139015,10.117859 16.8389962,9.81803922 C17.1673162,9.32324466 18.8007309,7.38729197 19.3364109,6.81938186 C19.3364109,6.81938186 19.4519141,6.7163763 19.5533204,6.4777161 C19.6365373,6.2390559 20.2045036,5.67758363 20.8165794,6.01924939 C20.8165794,6.01924939 20.6801583,6.03396447 20.5446467,6.12823295 C20.5223646,6.14340788 20.4950804,6.2022682 20.5246383,6.24457405 C20.8147604,6.65521675 22.3890594,9.02204537 22.6673583,12.3232816 C22.9733962,15.9620449 21.5477962,18.21989 21.4973204,18.1812629 C21.4459352,18.1426358 22.6478046,15.8139744 22.3354004,12.0133452 M15.6066594,16.1036775 C15.6066594,16.1036775 15.4784236,16.0976995 15.4525036,15.9100823 C15.4270383,15.7233847 15.4270383,15.6649842 15.3761078,15.5748544 C15.3247225,15.4847245 15.2492362,15.2069774 15.3892952,15.2069774 C15.3892952,15.2069774 15.5234425,15.8650173 15.6066594,16.1036775 M15.2183141,14.9715361 C15.1801162,14.7972544 15.0846215,14.7581674 15.0846215,14.7581674 C15.1228194,14.9039387 14.8640741,15.0101632 14.720832,15.1554746 C14.5771352,15.300786 14.4047899,15.4359808 14.4047899,15.4359808 C14.366592,15.3297563 14.4625415,15.1941017 14.5584909,15.097534 C14.6535309,15.0005064 14.5293878,14.9324492 14.5293878,14.9324492 C14.5293878,14.9324492 14.807232,14.6133159 15.0364194,14.6133159 C15.2660615,14.6133159 15.3620109,15.1168475 15.3620109,15.1168475 C15.3620109,15.1168475 15.256512,15.1458178 15.2183141,14.9715361 M14.366592,13.0263865 C14.366592,13.0263865 14.2838299,12.9169431 14.219712,12.8847538 C14.1555941,12.8525646 14.072832,12.7422015 14.072832,12.5876932 C14.072832,12.432725 14.0223562,12.4069736 13.9646046,12.4005357 C13.9646046,12.4005357 13.9323183,12.5555039 14.0223562,12.7490992 C14.1114846,12.9426945 14.1751478,13.123414 14.1751478,13.1615813 C14.1751478,13.1615813 13.9964362,13.0944437 13.9818846,12.9486725 C13.9677878,12.8038209 13.8868446,12.7651938 13.8868446,12.6391959 C13.8868446,12.5131981 13.7858931,12.3632882 13.8622888,12.2809757 C13.8622888,12.2809757 13.8577415,12.2133783 13.7958973,12.1701528 C13.7331436,12.1264674 13.6185499,12.0441549 13.5989962,11.9328721 C13.5989962,11.9328721 13.5607983,12.0680669 13.6090004,12.2230351 C13.6090004,12.2230351 13.4798552,12.1793497 13.5035015,12.0974971 C13.5276025,12.0147247 13.5085036,11.9567841 13.4798552,11.9328721 C13.450752,11.9089601 13.3980025,11.8211295 13.4221036,11.7103065 C13.4462046,11.5985639 13.3893625,11.5360248 13.3893625,11.5360248 C13.3893625,11.5360248 13.5326046,11.5456816 13.5899015,11.7921591 C13.5899015,11.7921591 13.6326467,11.7245618 13.6185499,11.6376508 C13.6039983,11.5507399 13.5848994,11.3856551 13.6562931,11.2748321 C13.6562931,11.2748321 13.6471983,11.3327727 13.7094973,11.4054285 C13.7713415,11.4776243 13.7426931,11.5889071 13.8768404,11.651906 C13.8768404,11.651906 13.9054888,11.5507399 13.8672909,11.4927992 C13.8290931,11.4343988 13.7472404,11.3424295 13.7622467,11.2596572 C13.7622467,11.2596572 13.6135478,11.1198639 13.6471983,11.0035228 C13.6808488,10.8876416 13.6280994,10.7814171 13.5607983,10.7519869 C13.5607983,10.7519869 13.5226004,10.8002708 13.5607983,10.8876416 C13.5607983,10.8876416 13.5130509,10.9989244 13.5467015,11.0715801 C13.5798973,11.1437759 13.5798973,11.2408035 13.537152,11.2794306 C13.493952,11.3180577 13.5753499,11.4054285 13.4989541,11.5116529 C13.4989541,11.5116529 13.4839478,11.4679675 13.4462046,11.4343988 C13.4080067,11.4003701 13.3602594,11.3424295 13.3980025,11.2697738 C13.4366552,11.197578 13.3025078,11.134579 13.3457078,11.0228364 C13.3893625,10.9115536 13.2979604,10.8393577 13.2979604,10.8393577 C13.2979604,10.8393577 13.2306594,10.8876416 13.2643099,11.0228364 C13.2979604,11.158491 13.2934131,11.1874613 13.2497583,11.2458618 C13.2070131,11.3038024 13.2211099,11.3617431 13.2211099,11.3617431 C13.2211099,11.3617431 13.0919646,11.323116 13.1260699,11.197578 C13.1588109,11.0904338 13.0060194,11.0375515 13.0060194,11.0375515 C13.0060194,11.0375515 12.9814636,10.9166119 13.0201162,10.8002708 L12.9773709,10.7377317 C12.9773709,10.7377317 12.8955183,10.9405239 12.9391731,11.1056087 C12.9814636,11.2697738 12.9773709,11.3718597 12.9773709,11.3718597 C12.9773709,11.3718597 13.0392152,11.2748321 13.0201162,11.2017166 C13.0201162,11.2017166 13.0824152,11.2164316 13.0824152,11.3180577 C13.0824152,11.4196837 13.1683604,11.4679675 13.0724109,11.5746519 C13.0724109,11.5746519 12.9864657,11.5259082 12.9773709,11.4638289 C12.9773709,11.4638289 12.9532699,11.5985639 12.9814636,11.6808764 C12.9814636,11.6808764 12.8914257,11.7052482 12.8668699,11.7590502 C12.8668699,11.7590502 12.8050257,11.6569644 12.8382215,11.5649951 C12.871872,11.4730259 12.9050678,11.4638289 12.8955183,11.4003701 C12.8864236,11.3378311 12.8291267,11.134579 12.8818762,11.0766384 C12.8818762,11.0766384 12.871872,10.9745525 12.8768741,10.9023567 C12.8768741,10.9023567 12.8004783,10.8632697 12.8095731,10.7956723 C12.8191225,10.7276151 12.8050257,10.6264489 12.7427267,10.5823037 C12.7427267,10.5823037 12.7763773,10.5151661 12.7568236,10.4760792 C12.7377246,10.4374521 12.7427267,10.3454829 12.7954762,10.3165125 C12.7954762,10.3165125 12.8141204,10.5243631 12.9005204,10.6453026 C12.9005204,10.6453026 12.8668699,10.5441364 12.9100699,10.4714807 C12.9100699,10.4714807 12.8291267,10.4034235 12.8577752,10.3068558 C12.8864236,10.2102881 12.8482257,10.1371725 12.8004783,10.1229173 C12.8004783,10.1229173 12.7618257,9.93897878 12.8291267,9.80838245 C12.8955183,9.67778611 12.9100699,9.52281793 12.8527731,9.50396423 C12.8527731,9.50396423 12.8004783,9.39682006 12.8627773,9.31496743 C12.9241667,9.23265495 12.8668699,9.1167737 12.8668699,9.1167737 C12.8668699,9.1167737 12.9678215,9.15999924 12.9628194,9.22759664 C12.958272,9.29565389 12.958272,9.31956589 12.9864657,9.34393774 C13.0155688,9.36784975 13.0060194,9.55178824 13.0678636,9.60053195 C13.1301625,9.6488158 13.1783646,9.74078505 13.1588109,9.86172461 C13.1588109,9.86172461 13.2211099,9.77481367 13.2070131,9.67778611 C13.1924615,9.58075856 13.0969667,9.58075856 13.1110636,9.48878931 C13.1260699,9.39682006 13.1351646,9.25196849 13.0824152,9.18896956 C13.0301204,9.12643047 13.0301204,9.06343153 13.0724109,9.01008937 C13.0724109,9.01008937 13.0633162,8.92271858 12.9914678,8.91352166 C12.9914678,8.91352166 13.0678636,8.85512118 13.1401667,8.92271858 C13.2120152,8.99077582 13.1974636,9.04871645 13.1783646,9.09240185 C13.1588109,9.13608724 13.1492615,9.36325128 13.2784067,9.44050545 C13.2784067,9.44050545 13.2356615,9.3246242 13.2834088,9.2570268 C13.3316109,9.18896956 13.2356615,9.07768677 13.2884109,8.99537429 C13.2884109,8.99537429 13.3407057,8.92271858 13.3166046,8.88455134 C13.3166046,8.88455134 13.4030046,8.89880658 13.3980025,8.98571752 C13.3934552,9.07262846 13.3507099,9.18437109 13.4703057,9.18437109 C13.4703057,9.18437109 13.5035015,9.24231172 13.4839478,9.28599711 C13.4839478,9.28599711 13.5326046,9.28093881 13.5607983,9.22759664 C13.6185499,9.13102893 13.7958973,9.21793987 13.7808909,9.11171539 C13.7808909,9.11171539 13.8431899,9.13608724 13.8381878,9.22299818 C13.8336404,9.30990912 13.804992,9.31496743 13.8622888,9.37796636 C13.9195857,9.44050545 13.9818846,9.73066843 13.9104909,9.90495016 C13.9104909,9.90495016 13.8954846,9.84241107 13.848192,9.84241107 C13.8004446,9.84241107 13.7381457,9.73572674 13.7572446,9.65387411 C13.7763436,9.57156163 13.7808909,9.4648773 13.7190467,9.42625022 C13.7190467,9.42625022 13.6562931,9.65847257 13.6853962,9.77895229 C13.7140446,9.89989185 13.6185499,9.97806571 13.6185499,9.97806571 C13.6185499,9.97806571 13.7240488,10.2535136 13.6808488,10.4231969 C13.6808488,10.4231969 13.7908952,10.3358261 13.7958973,10.2489152 C13.8004446,10.1620042 13.6999478,10.1620042 13.7331436,10.1040636 C13.7667941,10.0452033 13.7622467,9.94863555 13.7622467,9.94863555 C13.7622467,9.94863555 13.8431899,10.0263496 13.8431899,10.117859 C13.8431899,10.2102881 13.8381878,10.6361057 14.0491857,10.6894479 C14.0491857,10.6894479 13.9818846,10.587362 14.0055309,10.500451 C14.0300867,10.4130803 13.8622888,10.1813178 13.9818846,9.95829232 C13.9818846,9.95829232 14.0632825,10.0502616 14.0778341,10.1859162 C14.0923857,10.3215709 14.0873836,10.5487349 14.1974299,10.5390781 C14.1974299,10.5390781 14.2165288,10.4231969 14.1974299,10.3114542 C14.1783309,10.2001714 14.1401331,10.1082022 14.1401331,10.1082022 C14.1401331,10.1082022 14.1733288,10.1279756 14.2215309,10.1422308 C14.2688236,10.1569459 14.3170257,10.2102881 14.3124783,10.3215709 C14.3124783,10.3215709 14.3697752,10.3408844 14.3747773,10.3891683 C14.3747773,10.3891683 14.4079731,10.2342001 14.3793246,10.1620042 C14.3506762,10.0888887 14.2688236,10.0120943 14.3124783,9.85712615 C14.3124783,9.85712615 14.4320741,9.98726264 14.4416236,10.1620042 C14.4511731,10.3358261 14.4170678,10.6793312 14.4939183,10.7956723 C14.4939183,10.7956723 14.5325709,10.7326734 14.5325709,10.6310474 C14.5325709,10.6310474 14.6039646,10.7276151 14.5803183,10.877525 C14.556672,11.0278947 14.7140109,11.1778046 14.565312,11.6086805 C14.565312,11.6086805 14.4607225,11.5410831 14.4939183,11.3957717 C14.4939183,11.3957717 14.4220699,11.5167112 14.4798215,11.6325925 C14.5371183,11.7489336 14.5466678,11.7779039 14.5180194,11.8749315 C14.4893709,11.9710393 14.4366215,12.0781835 14.4989204,12.1457809 C14.4989204,12.1457809 14.3888741,12.1701528 14.3793246,12.0441549 C14.3697752,11.918157 14.3279394,11.8841284 14.3279394,11.8841284 C14.3279394,11.8841284 14.2392657,12.0069073 14.3279394,12.1683134 C14.4170678,12.3292596 14.4689078,12.4777899 14.4238888,12.6520716 C14.4238888,12.6520716 14.2838299,12.6198824 14.2897415,12.5099791 C14.2965625,12.4005357 14.2324446,12.349033 14.2324446,12.349033 C14.2324446,12.349033 14.1751478,12.516417 14.2392657,12.6327581 C14.3029288,12.7490992 14.4170678,12.8649804 14.366592,13.0263865 M14.3029288,13.8780217 C14.3029288,13.8780217 14.2897415,13.7750162 14.2392657,13.6908643 C14.1878804,13.6071723 14.219712,13.5041667 14.219712,13.5041667 C14.219712,13.5041667 14.3088404,13.4586419 14.340672,13.6136101 C14.3729583,13.7685783 14.3029288,13.8780217 14.3029288,13.8780217 M13.804992,12.8134777 C13.8882088,12.8971697 13.9264067,13.0392622 13.9646046,13.1036406 C14.0032573,13.168479 14.0860194,13.2586088 14.0796531,13.3423008 C14.072832,13.4264527 14.1433162,13.6002746 14.1751478,13.7230535 C14.2074341,13.8458325 14.1942467,13.9874651 14.1942467,13.9874651 C14.1942467,13.9874651 14.1046636,13.8968754 14.1173962,13.8265189 C14.1305836,13.7552428 14.0860194,13.6522372 14.0155352,13.6002746 C13.9459604,13.5487718 13.9195857,13.4071392 13.9264067,13.3101116 C13.9323183,13.213084 13.8622888,13.1169762 13.8622888,13.1169762 C13.8113583,13.1427276 13.8181794,13.1749168 13.8181794,13.1749168 C13.8181794,13.1749168 13.7731604,13.0972028 13.7990804,13.0066131 C13.8240909,12.9169431 13.804992,12.8134777 13.804992,12.8134777 M14.2265331,14.807371 C14.2265331,14.807371 14.1878804,14.729657 14.1364952,14.7167813 C14.0860194,14.7034457 14.0410004,14.6330892 14.0410004,14.5489374 C14.0410004,14.4647855 13.9900699,14.4137426 13.9900699,14.4137426 C13.9264067,14.4197206 13.8500109,14.5038725 13.7990804,14.4909968 C13.7472404,14.4781211 13.7031309,14.400407 13.7031309,14.400407 C13.658112,14.4716832 13.5498846,14.4716832 13.5498846,14.4716832 C13.5944488,14.4261584 13.6135478,14.2845258 13.5817162,14.2003739 C13.5498846,14.1171418 13.6071815,14.0523034 13.6071815,14.0523034 C13.6390131,14.155309 13.7031309,14.3042992 13.7031309,14.3042992 C13.7604278,14.2132496 13.7417836,14.0201142 13.6835773,13.9874651 C13.6262804,13.9552759 13.5753499,13.8522703 13.5944488,13.787432 C13.6135478,13.7230535 13.5885373,13.580961 13.5885373,13.580961 C13.6517457,13.6264858 13.7667941,13.8196212 13.7667941,13.8968754 C13.7667941,13.9750493 13.804992,14.0651791 13.8622888,14.1102441 C13.9195857,14.155309 13.9773373,14.2974015 13.9773373,14.2974015 C14.0410004,14.2132496 14.0155352,14.0651791 14.0155352,14.0651791 C13.9323183,14.0201142 13.8622888,13.8522703 13.8622888,13.7423671 C13.8622888,13.6329237 13.7922594,13.5552097 13.7922594,13.5552097 L13.7472404,13.620048 C13.7472404,13.620048 13.6776657,13.542334 13.6517457,13.4779555 C13.6262804,13.413577 13.6708446,13.2199817 13.6708446,13.2199817 C13.7417836,13.3556364 13.8304573,13.4071392 13.8304573,13.4071392 C13.8368236,13.5041667 13.9004867,13.6973021 14.0410004,13.9166488 C14.1810594,14.1355356 14.1496825,14.3489043 14.1496825,14.3489043 C14.0982973,14.3042992 14.0664657,14.2905038 14.0664657,14.2905038 C14.0664657,14.2905038 14.0923857,14.394429 14.1687815,14.5296238 C14.2451773,14.6648186 14.2265331,14.807371 14.2265331,14.807371 M14.1624152,15.4327619 C14.1433162,15.6075034 14.0473667,15.6778599 14.0473667,15.6778599 C14.0923857,15.5426651 14.0410004,15.3555077 13.9964362,15.2327288 C13.9514173,15.1099498 14.0473667,15.0648849 14.0473667,15.0648849 C14.1046636,15.0326956 14.1810594,15.2584801 14.1624152,15.4327619 M13.6776657,14.5618131 C13.7604278,14.6202136 13.7990804,14.7034457 13.8240909,14.768284 C13.8500109,14.8331224 13.7540615,14.8712896 13.8304573,14.9940686 C13.9073078,15.1168475 13.8500109,15.2584801 13.8500109,15.2584801 C13.8431899,15.2005395 13.7604278,15.1941017 13.7031309,15.1099498 C13.6458341,15.0262578 13.6835773,14.8524359 13.6967646,14.729657 C13.7094973,14.606878 13.6776657,14.5618131 13.6776657,14.5618131 M13.9709709,16.1942673 C13.9709709,16.1942673 13.9004867,16.1551803 13.8818425,16.0526346 C13.8622888,15.9487094 13.7858931,15.9293958 13.7858931,15.9293958 C13.7731604,16.000672 13.8240909,16.1809317 13.8431899,16.3101485 C13.8622888,16.4393653 13.7858931,16.5235172 13.7858931,16.5235172 C13.7795267,16.452241 13.7417836,16.3943004 13.6899436,16.3363597 C13.6390131,16.2779593 13.6835773,16.1744939 13.6835773,16.1744939 C13.6390131,16.1358668 13.5885373,16.078386 13.5885373,15.9234178 C13.5885373,15.7684496 13.5244194,15.6590062 13.5244194,15.6590062 C13.4093709,15.6130216 13.4348362,15.5035782 13.4480236,15.4070105 C13.4607562,15.3104428 13.4030046,15.2005395 13.4030046,15.2005395 C13.4989541,15.2327288 13.6390131,15.4911623 13.6326467,15.6263571 C13.6262804,15.7615519 13.7285962,15.8585795 13.7285962,15.8585795 C13.8240909,15.8006389 13.6899436,15.5877301 13.7285962,15.5035782 C13.7667941,15.4198862 13.7222299,15.2906694 13.7222299,15.2906694 C13.8240909,15.34861 13.8431899,15.5035782 13.8622888,15.6130216 C13.8818425,15.7233847 13.8941204,15.8521416 13.9514173,15.9487094 C14.0087141,16.0457369 13.9709709,16.1942673 13.9709709,16.1942673 M13.6835773,17.2197244 C13.6008152,17.4974715 13.5053204,17.4910337 13.5053204,17.4910337 C13.5053204,17.4910337 13.6199141,17.3103141 13.5944488,17.187995 C13.5689836,17.0647562 13.658112,16.9102479 13.6390131,16.8003446 C13.6199141,16.6909012 13.6967646,16.6200849 13.6967646,16.6200849 C13.6967646,16.6200849 13.7667941,16.9428969 13.6835773,17.2197244 M13.4798552,16.4071761 C13.5180531,16.3363597 13.5180531,16.1878294 13.4798552,16.1942673 C13.4416573,16.2007051 13.4221036,16.2779593 13.4221036,16.2779593 C13.3520741,16.2007051 13.3707183,16.0714883 13.3966383,15.9749206 C13.4221036,15.877893 13.4030046,15.8006389 13.4030046,15.8006389 C13.5244194,15.8585795 13.5307857,16.1036775 13.5885373,16.2393322 C13.6458341,16.3749868 13.658112,16.5423709 13.5944488,16.5938736 C13.5307857,16.6458363 13.4989541,16.736426 13.4989541,16.736426 C13.4348362,16.6265227 13.4416573,16.4779924 13.4798552,16.4071761 M13.2242931,13.3036738 C13.2815899,13.5041667 13.3266088,13.4517442 13.3898173,13.6715508 C13.4539352,13.8908974 13.3329752,14.0008007 13.3329752,14.0008007 C13.3520741,13.94286 13.3393415,13.7363891 13.2565794,13.6646531 C13.1733625,13.5942966 13.2179267,13.542334 13.2051941,13.4779555 C13.1924615,13.413577 13.2242931,13.3036738 13.2242931,13.3036738 M13.2815899,12.355011 C13.1924615,12.3292596 13.2242931,12.2391297 13.2374804,12.14854 C13.2497583,12.0584101 13.2179267,11.9554046 13.2179267,11.9554046 C13.3138762,12.0133452 13.4221036,12.2653409 13.416192,12.3619086 C13.4093709,12.4584764 13.4416573,12.6005688 13.4416573,12.6005688 C13.3520741,12.5683796 13.3707183,12.3812222 13.2815899,12.355011 M13.4348362,14.8653116 C13.4030046,14.7944953 13.4539352,14.6648186 13.4539352,14.6648186 C13.4539352,14.6648186 13.537152,14.768284 13.5498846,14.8975008 C13.5626173,15.0262578 13.4539352,15.0782204 13.4539352,15.0782204 C13.4539352,15.0782204 13.4666678,14.9356681 13.4348362,14.8653116 M13.3775394,17.639564 C13.3393415,18.013419 13.2179267,18.174825 13.2179267,18.174825 C13.2179267,18.174825 13.2565794,18.007441 13.2438467,17.80097 C13.2306594,17.5944991 13.3166046,17.4583846 13.3011436,17.1617837 C13.3011436,17.059238 13.1833667,16.9364591 13.2402088,16.8104612 C13.2979604,16.6840035 13.2306594,16.5589253 13.2306594,16.5589253 C13.1260699,16.4329275 13.2306594,16.248989 13.2306594,16.248989 C13.2565794,16.4329275 13.3202425,16.4973059 13.3775394,16.6393984 C13.4348362,16.7810311 13.3266088,16.8458694 13.3266088,16.8458694 C13.3707183,16.9553128 13.416192,17.265709 13.3775394,17.639564 M13.0969667,17.8556917 C13.0969667,17.8556917 13.1351646,17.5650689 13.1160657,17.3811304 C13.0969667,17.1971919 13.1065162,17.1493679 13.1638131,17.1392513 C13.1638131,17.1392513 13.2120152,17.1493679 13.2120152,17.2459356 C13.2120152,17.3429632 13.1733625,17.6427829 13.0969667,17.8556917 M13.0301204,12.5711387 C13.0492194,12.4653741 13.0392152,12.3393762 13.0392152,12.3393762 C13.1638131,12.5325116 13.1160657,12.8327912 13.1160657,12.8327912 C13.0010173,12.755537 13.0110215,12.6782829 13.0301204,12.5711387 M13.0246636,18.4263609 C12.9673667,18.1619493 12.9882846,17.8782242 13.0246636,17.8782242 C13.0842341,17.884662 13.0246636,18.4263609 13.0246636,18.4263609 M12.8291267,17.2459356 C12.8291267,17.1493679 12.8768741,17.1392513 12.8768741,17.1392513 C12.9341709,17.1493679 12.9437204,17.1971919 12.9241667,17.3811304 C12.9050678,17.5650689 12.9437204,17.8556917 12.9437204,17.8556917 C12.8668699,17.6427829 12.8291267,17.3429632 12.8291267,17.2459356 M12.7463646,17.1038431 C12.6886131,17.059238 12.6886131,16.9681885 12.6886131,16.9166857 C12.6886131,16.8651829 12.6822467,16.8904745 12.6435941,16.7948264 C12.5994846,16.6329606 12.6758804,16.452241 12.6758804,16.452241 C12.6695141,16.5423709 12.7463646,16.7488418 12.7650088,16.8849563 C12.7841078,17.0201511 12.7463646,17.1038431 12.7463646,17.1038431 M12.5799309,9.89713277 C12.4908025,9.92334401 12.4971688,10.0452033 12.5294552,10.1100416 C12.560832,10.1744201 12.5294552,10.2456962 12.4653373,10.2778855 C12.4012194,10.3100747 12.3821204,10.380891 12.3821204,10.380891 C12.3311899,10.1679822 12.4075857,9.89115477 12.4526046,9.85850569 C12.4971688,9.82631645 12.5035352,9.76147813 12.5035352,9.76147813 C12.4335057,9.68422396 12.4717036,9.58075856 12.5103562,9.51638008 C12.5480994,9.45200161 12.5994846,9.32968251 12.5994846,9.32968251 C12.6376825,9.477753 12.6695141,9.87138138 12.5799309,9.89713277 M12.3398299,17.2197244 C12.2566131,16.9428969 12.3270973,16.6200849 12.3270973,16.6200849 C12.3270973,16.6200849 12.4034931,16.6909012 12.3843941,16.8003446 C12.3652952,16.9102479 12.4544236,17.0647562 12.4289583,17.187995 C12.4034931,17.3103141 12.5180867,17.4910337 12.5180867,17.4910337 C12.5180867,17.4910337 12.4230467,17.4974715 12.3398299,17.2197244 M12.1847646,16.3170462 C12.146112,16.2071429 12.2993583,16.0328612 12.2993583,16.0328612 C12.2993583,16.0328612 12.3375562,16.1551803 12.2675267,16.2200186 C12.1970425,16.284857 12.3502888,16.3101485 12.3502888,16.3101485 C12.292992,16.3943004 12.2611604,16.5938736 12.2611604,16.5938736 C12.1715773,16.5423709 12.2225078,16.4264896 12.1847646,16.3170462 M12.2165962,15.3233185 C12.2165962,15.4971403 12.2675267,15.7422384 12.2675267,15.7422384 C12.2675267,15.7422384 12.1529331,15.6521085 12.1529331,15.5426651 C12.146112,15.4649511 12.2165962,15.3233185 12.2165962,15.3233185 M12.1652109,10.6006975 C12.2034088,10.5487349 12.2225078,10.4002046 12.2225078,10.4002046 C12.2225078,10.4002046 12.2738931,10.6522003 12.2675267,10.7294545 C12.2611604,10.8067086 12.1970425,10.8522334 12.1970425,10.8522334 C12.0951815,10.7492279 12.1270131,10.6522003 12.1652109,10.6006975 M12.0447057,9.92932201 C12.0447057,9.92932201 12.1020025,9.81344076 12.0697162,9.7035375 C12.0378846,9.5940941 12.1397457,9.52281793 12.1079141,9.49062869 C12.0760825,9.45843946 11.9928657,9.50396423 11.9928657,9.50396423 C12.0310636,9.30393112 12.2102299,9.18713017 12.2102299,9.18713017 C12.1652109,9.25840634 12.1333794,9.42625022 12.1779436,9.38762313 C12.2225078,9.34899605 12.2866257,9.33566051 12.2866257,9.33566051 C12.2352404,9.39360114 12.2165962,9.60053195 12.1970425,9.71687305 C12.1779436,9.8327543 12.0447057,9.92932201 12.0447057,9.92932201 M11.9337499,15.9638843 C11.8623562,15.9151406 11.8473499,15.794201 11.8528067,15.6976333 C11.8623562,15.5228917 11.8528067,15.3200995 11.8528067,15.3200995 C11.8528067,15.3200995 11.9487562,15.5716354 11.9487562,15.7266036 C11.9487562,15.881112 12.0538004,15.9008853 12.0538004,15.9008853 C12.0451604,15.9477897 12.0010509,15.9928546 11.9337499,15.9638843 M12.0487983,8.56449836 C11.981952,8.59852698 11.714112,8.67164253 11.5990636,8.51161604 C11.5990636,8.51161604 11.7618594,8.46333218 11.9337499,8.46333218 C12.1060952,8.46333218 12.3070888,8.44401864 12.4025836,8.42424525 C12.4025836,8.42424525 12.4412362,8.46793064 12.5035352,8.47758742 C12.5035352,8.47758742 12.4266846,8.50655773 12.3502888,8.4973608 C12.2738931,8.48724419 12.1160994,8.53138943 12.0487983,8.56449836 M11.2448236,8.26927707 C11.1970762,8.19248274 11.2352741,8.07108334 11.2352741,8.07108334 C11.2448236,8.0568281 11.2789288,8.03751456 11.2789288,8.13914058 C11.2789288,8.26008014 11.5131183,8.26927707 11.4312657,8.23616814 C11.3503225,8.20213952 11.3312236,8.08579842 11.3553246,8.0080844 C11.3789709,7.93083023 11.5081162,7.90691823 11.5608657,7.94554531 C11.6136152,7.9841724 11.5795099,8.04717133 11.5463141,8.02785779 C11.5131183,8.0080844 11.4171688,8.02279948 11.4412699,8.10511196 C11.5035688,8.24536506 11.584512,8.18742444 11.584512,8.18742444 C11.670912,8.14419889 11.8141541,8.26513845 11.8050594,8.06142656 C11.7618594,7.81494898 11.4935646,7.94094685 11.4935646,7.88714484 C11.4935646,7.83426252 11.5513162,7.83886098 11.7045625,7.81494898 C11.8578088,7.79057713 11.8864573,7.70366619 11.9292025,7.60204017 C11.9724025,7.4999543 12.0201499,7.4084449 12.2402425,7.20979132 C12.4603352,7.01159759 12.6613288,7.19553609 12.6613288,7.19553609 C12.7668278,7.17162408 12.8241246,7.20059439 12.8768741,7.23876163 C12.9291688,7.27784856 13.0110215,7.35510273 13.0969667,7.39878813 C13.1833667,7.44201367 13.2070131,7.47604229 13.1874594,7.53398292 C13.1683604,7.59192355 13.2024657,7.64066725 13.2024657,7.64066725 C13.1065162,7.64572556 13.0537667,7.69906772 13.0537667,7.69906772 C13.0537667,7.69906772 13.0774131,7.78597866 13.1351646,7.90185992 C13.1924615,8.01820102 13.1160657,8.13914058 13.0251183,8.10511196 C12.9341709,8.07108334 12.8336741,8.1244255 12.8527731,8.16811089 C12.871872,8.21133644 12.8432236,8.24030675 12.8432236,8.24030675 C12.7522762,8.24030675 12.6708783,8.29824738 12.7145331,8.35204939 C12.7568236,8.40539156 12.7377246,8.46793064 12.7377246,8.46793064 C12.6085794,8.33273585 12.4839815,8.37136293 12.5085373,8.33733431 C12.5321836,8.30330569 12.4985331,8.21133644 12.4985331,8.21133644 C12.4557878,8.34239262 12.2738931,8.36630462 12.0151478,8.35204939 C11.7568573,8.33733431 11.6372615,8.3571077 11.5272152,8.36630462 C11.4171688,8.37642124 11.2930257,8.34699108 11.2448236,8.26927707 M11.8050594,6.77431692 C11.7568573,6.59543674 11.7191141,6.51818257 11.7191141,6.51818257 C11.8478046,6.57612319 11.9487562,6.91962834 11.9628531,6.99688251 C11.9769499,7.07459652 12.025152,7.03550959 12.0633499,6.98262727 C12.1020025,6.92928511 12.1683941,6.91962834 12.1683941,6.91962834 C12.1683941,6.91962834 12.0296994,7.24381994 11.9678552,7.20979132 C11.9051015,7.1757627 11.8528067,6.95365696 11.8050594,6.77431692 M12.465792,6.86904525 C12.4826173,6.9053731 12.4889836,6.97756897 12.4339604,6.99688251 C12.3971267,7.01297713 12.3493794,7.00194082 12.3166383,6.93894188 C12.2643436,6.83731586 12.1206467,6.53749611 11.9724025,6.45012532 C11.8237036,6.36321438 11.7568573,6.26618682 11.7568573,6.26618682 C12.1338341,6.36873254 12.3948531,6.7103983 12.465792,6.86904525 M13.2884109,6.86628617 C13.4753078,6.76971846 13.493952,6.74534661 13.5226004,6.69246429 C13.5226004,6.69246429 13.4607562,6.70166122 13.3743562,6.75040492 C13.2884109,6.79868878 13.8768404,6.2809019 14.0923857,6.36321438 C14.0923857,6.36321438 13.6090004,6.47449717 13.4316531,7.12747884 C13.3843604,7.35050427 13.2834088,7.26819179 13.1638131,7.26819179 C13.1638131,7.26819179 13.2070131,7.20473301 13.2547604,7.18082101 C13.3025078,7.15644915 13.3457078,7.05068452 13.3457078,7.05068452 C13.3457078,7.05068452 13.2306594,7.07459652 13.1492615,7.12747884 C13.0678636,7.18082101 13.0110215,7.16150746 13.0110215,7.16150746 C13.0110215,7.16150746 13.1015141,6.96331373 13.2884109,6.86628617 M14.2306257,6.46024194 C14.2306257,6.46024194 14.340672,6.70671953 14.1974299,7.10356684 C14.0541878,7.4999543 13.9341373,7.58732509 13.9195857,7.60204017 C13.9054888,7.61675525 13.8577415,7.55375631 13.8768404,7.44201367 C13.8954846,7.33073088 13.8381878,7.23876163 13.8381878,7.23876163 C13.8381878,7.23876163 13.9341373,7.29670226 13.9532362,7.36016104 C13.9727899,7.42270013 14.1783309,7.0166559 14.2074341,6.68280752 C14.2215309,6.49840918 14.2306257,6.46024194 14.2306257,6.46024194 M14.0923857,9.32968251 C14.1555941,9.44556376 14.0796531,9.49062869 14.1687815,9.63915903 C14.2583646,9.78722952 14.1878804,9.95553325 14.1878804,9.95553325 C14.1878804,9.95553325 14.1624152,9.87781923 14.0664657,9.80056506 C13.9709709,9.72285105 14.0346341,9.54213147 14.0346341,9.54213147 C13.9459604,9.45200161 13.9264067,9.34209836 13.9323183,9.21334141 C13.9391394,9.08412461 13.7990804,8.89696719 13.7990804,8.89696719 C13.9709709,8.95490782 14.0282678,9.21334141 14.0923857,9.32968251 M14.2647309,9.09240185 C14.2788278,9.16459771 14.2688236,9.19356802 14.2688236,9.19356802 C14.3556783,9.2758805 14.2883773,9.42165176 14.2883773,9.42165176 C14.2883773,9.42165176 14.2883773,9.35865282 14.202432,9.30531066 C14.1164867,9.25196849 14.1114846,9.15034247 14.1210341,9.09240185 C14.1305836,9.03446122 14.0678299,8.94249197 14.0678299,8.94249197 C14.0678299,8.94249197 14.2497246,8.98571752 14.2647309,9.09240185 M14.6785415,10.3551396 C14.5262046,10.2907612 14.5644025,10.0516411 14.5644025,10.0516411 C14.7049162,10.1551065 14.6785415,10.3551396 14.6785415,10.3551396 M14.5898678,9.56834271 C14.6921836,9.72285105 14.7049162,9.93575986 14.7049162,9.93575986 C14.7049162,9.93575986 14.5962341,9.91644632 14.5703141,9.78722952 C14.5453036,9.65847257 14.5130173,9.52971562 14.4434425,9.4648773 C14.3729583,9.40003898 14.3729583,9.3554339 14.3729583,9.3554339 C14.3729583,9.3554339 14.4880067,9.41337452 14.5898678,9.56834271 M17.5006383,7.95566193 C18.5519899,6.91962834 19.2500109,6.4648404 19.2986678,6.49381072 C19.3459604,6.52278103 18.8566636,6.77845554 17.5961331,8.05268949 C17.3155604,8.33595477 16.9940615,8.66888345 16.6284531,9.05837322 C16.6284531,9.05837322 16.0732194,9.63915903 15.852672,9.68790273 C15.852672,9.68790273 16.6225415,8.8095964 17.5006383,7.95566193 M11.5976994,9.4648773 C11.5272152,9.52971562 11.4953836,9.65847257 11.4699183,9.78722952 C11.4444531,9.91644632 11.3362257,9.93575986 11.3362257,9.93575986 C11.3362257,9.93575986 11.3485036,9.72285105 11.4508194,9.56834271 C11.5526804,9.41337452 11.6677288,9.3554339 11.6677288,9.3554339 C11.6677288,9.3554339 11.6677288,9.40003898 11.5976994,9.4648773 M11.6349878,15.4359808 C11.6349878,15.4359808 11.463552,15.300786 11.3194004,15.1554746 C11.1761583,15.0101632 10.9178678,14.9039387 10.9565204,14.7581674 C10.9565204,14.7581674 10.8605709,14.7972544 10.8219183,14.9715361 C10.7841752,15.1458178 10.6786762,15.1168475 10.6786762,15.1168475 C10.6786762,15.1168475 10.7746257,14.6133159 11.0038131,14.6133159 C11.2334552,14.6133159 11.5112994,14.9324492 11.5112994,14.9324492 C11.5112994,14.9324492 11.3867015,15.0005064 11.4826509,15.097534 C11.5781457,15.1941017 11.6736404,15.3297563 11.6349878,15.4359808 M10.6691267,15.5748544 C10.6186509,15.6649842 10.6186509,15.7233847 10.5927309,15.9100823 C10.5677204,16.0976995 10.4394846,16.1036775 10.4394846,16.1036775 C10.521792,15.8650173 10.6563941,15.2069774 10.6563941,15.2069774 C10.7964531,15.2069774 10.7209667,15.4847245 10.6691267,15.5748544 M9.33902147,10.877525 C9.19850779,10.8908605 9.09664674,10.7492279 9.09664674,10.7492279 C7.50142989,8.2587006 6.14267621,6.53565672 6.09174568,6.54209457 C6.04036042,6.54899226 6.07037305,8.21317582 6.45917305,10.4650429 C6.85752253,12.8001421 7.64194358,14.4845589 7.60374568,14.5162883 C7.56509305,14.5489374 6.83796884,13.542334 6.30820042,11.1037693 C5.778432,8.66474484 5.89393516,6.52278103 5.84254989,6.51634318 C5.79161937,6.50990533 4.96854568,9.09746015 4.92443621,11.2711534 C4.87259621,14.0844927 5.35780042,15.871915 5.30050358,15.8972066 C5.242752,15.9234178 4.57292463,13.5878587 4.64932042,11.2716132 C4.75254568,8.57875359 5.58926147,6.64050167 5.55515621,6.61934874 C5.50468042,6.5871595 4.02405726,8.78108594 3.70528674,12.0133452 C3.39242779,15.8139744 4.594752,18.1426358 4.54382147,18.1812629 C4.49243621,18.21989 3.06729095,15.9620449 3.37332884,12.3232816 C3.65117305,9.02204537 5.22592674,6.65521675 5.51559411,6.24457405 C5.54560674,6.2022682 5.51786779,6.14340788 5.49604042,6.12823295 C5.36052884,6.03396447 5.22365305,6.01924939 5.22365305,6.01924939 C5.83618358,5.67758363 6.40414989,6.2390559 6.48645726,6.4777161 C6.58922779,6.7163763 6.70427621,6.81938186 6.70427621,6.81938186 C7.23995621,7.38729197 8.87337095,9.32324466 9.20214568,9.81803922 C9.42678568,10.117859 9.38313095,10.2001714 9.92426779,9.94403709 C10.4649499,9.68790273 10.8046383,9.6249038 10.8046383,9.6249038 C10.8046383,9.6249038 10.7277878,9.75504028 10.651392,9.86172461 C10.4744994,10.0990053 9.74237305,10.2631704 9.52682779,10.2778855 C9.52682779,10.2778855 9.37449095,10.3261693 9.17304253,10.0452033 C8.95294989,9.74584336 8.35042358,9.12643047 8.35042358,9.12643047 C8.57006147,9.41659345 9.20214568,10.4613641 9.20214568,10.4613641 C9.20214568,10.4613641 9.28354358,10.5731068 9.42678568,10.5823037 C9.61368253,10.6213906 10.1875604,10.6066755 10.1875604,10.6066755 C10.1557288,10.7101409 9.47908042,10.8651091 9.33902147,10.877525 M6.74247411,6.49381072 C6.78976674,6.4648404 7.48869726,6.91962834 8.53959411,7.95566193 C9.41769095,8.8095964 10.1875604,9.68790273 10.1875604,9.68790273 C9.96701305,9.63915903 9.41223411,9.05837322 9.41223411,9.05837322 C9.04617095,8.66888345 8.724672,8.33595477 8.44455411,8.05268949 C7.18402358,6.77845554 6.694272,6.52278103 6.74247411,6.49381072 M22.7942299,11.200337 C22.2590046,8.1423595 20.6315015,6.19996897 20.6315015,6.19996897 C20.8356783,6.07764986 21.0848741,6.05833632 21.0848741,6.05833632 C20.3509288,5.61320516 20.1790383,5.81599735 19.0208236,6.37746962 C17.8630636,6.93894188 16.5420531,8.16811089 16.1141457,8.62611775 C15.8881415,8.86891657 15.7494467,9.05561415 15.6425836,9.18621048 C15.5475436,9.30209173 15.3265415,9.20368464 15.1328236,9.16045909 C15.1328236,9.16045909 14.9245541,8.93237535 14.6953667,8.84546441 C14.4657246,8.75855347 14.1401331,8.4973608 14.0346341,8.01314271 C13.9709709,7.70366619 14.0346341,7.72941758 14.1364952,7.548698 C14.2392657,7.36797843 14.5007394,6.88376033 14.3597709,6.51634318 C14.219712,6.14846619 13.9441415,6.09696341 13.0724109,6.91457003 C13.0724109,6.91457003 12.8668699,6.82765909 12.6135815,6.81754247 C12.6135815,6.81754247 12.2738931,6.31952899 11.7377583,6.16961911 C11.7377583,6.16961911 11.6231646,6.15030557 11.5945162,6.27630344 C11.5654131,6.40184147 11.6518131,6.52278103 11.6854636,6.70166122 C11.7191141,6.88100125 11.8237036,7.20473301 11.9292025,7.38913135 C11.9292025,7.38913135 11.8478046,7.4811006 11.8050594,7.57766831 C11.8050594,7.57766831 11.7473078,7.72803804 11.6904657,7.75195004 C11.6331688,7.77632189 11.4603688,7.79057713 11.3312236,7.83886098 C11.3312236,7.83886098 11.2689246,7.8489776 11.2448236,7.78092035 C11.2211773,7.71286311 11.0870299,7.78092035 11.1684278,8.10005365 C11.1684278,8.10005365 11.1829794,8.17776766 11.1538762,8.25042337 C11.1256825,8.32307908 11.0770257,8.45827387 11.2543731,8.47298895 C11.2543731,8.47298895 11.2830215,8.60358529 11.3694215,8.66658422 C11.4558215,8.72958316 11.7618594,8.7728087 11.9578509,8.7728087 C12.0774467,8.77740717 12.1020025,8.87765365 12.1020025,8.87765365 C12.1020025,8.87765365 12.0697162,9.00687044 11.8141541,9.09746015 C11.5595015,9.18713017 11.3298594,9.31634697 11.2657415,9.4648773 C11.2657415,9.4648773 10.8255562,9.45843946 10.6463899,9.40003898 C10.4681331,9.34209836 10.3530846,9.08412461 9.92608674,8.62611775 C9.49817937,8.16811089 8.17807832,6.93894188 7.01986358,6.37746962 C5.86210358,5.81599735 5.68975832,5.61320516 4.95581305,6.05833632 C4.95581305,6.05833632 5.20455411,6.07764986 5.40873095,6.19996897 C5.40873095,6.19996897 3.78168253,8.1423595 3.24600253,11.200337 C2.70986779,14.2583146 3.436992,17.433093 5.10860463,19.2522448 C5.10860463,19.2522448 4.01132463,16.7879288 4.75163621,16.3621111 C5.08359411,16.1809317 5.50468042,16.4913279 5.50468042,16.4913279 C5.50468042,16.4913279 5.21092042,14.9296901 6.05309305,14.4390341 C6.89526568,13.948838 7.66104253,15.0069442 7.66104253,15.0069442 C7.66104253,15.0069442 7.57145937,13.8334166 8.79652042,13.6002746 C10.0215815,13.3680522 10.8255562,15.0460312 10.3530846,16.1170131 C10.3530846,16.1170131 10.2257583,16.3841837 10.0343141,16.4715545 C9.84332463,16.5589253 9.75692463,16.820118 9.82377095,16.9746263 C9.82377095,16.9746263 9.84332463,16.8730003 9.91471832,16.8297748 C9.91471832,16.8297748 9.91471832,17.110281 10.0579604,17.2215638 C10.0579604,17.2215638 9.99156884,16.9700279 10.1252615,16.8104612 C10.1252615,16.8104612 10.1780109,16.8444898 10.1780109,16.921744 C10.1780109,16.999458 10.158912,17.3038762 10.3358046,17.3429632 C10.3358046,17.3429632 10.2735057,17.1971919 10.3308025,17.0229102 C10.3308025,17.0229102 10.3790046,17.0376253 10.3981036,17.0960257 C10.4172025,17.1539664 10.4694973,17.3765319 10.6231983,17.3811304 C10.6231983,17.3811304 10.5418004,17.2459356 10.5322509,16.9553128 C10.5222467,16.6651498 10.6850425,16.5152399 10.8860362,16.8150597 C10.8860362,16.8150597 10.8955857,16.7378055 10.9146846,16.6651498 C10.9337836,16.5924941 10.9005878,16.5005248 10.8146425,16.4039571 C10.7277878,16.3069296 10.5940952,16.0940208 10.7277878,15.8185729 C10.8623899,15.5426651 11.2880236,15.4649511 11.5608657,16.0507952 C11.9996867,16.9622105 12.0760825,17.5880612 12.6949794,18.2456413 C12.8609583,18.4327988 13.0201162,18.6328319 13.0201162,18.6328319 C13.0201162,18.6328319 13.1801836,18.4327988 13.3457078,18.2456413 C13.9646046,17.5880612 14.0410004,16.9622105 14.4798215,16.0507952 C14.7522088,15.4649511 15.1782973,15.5426651 15.3124446,15.8185729 C15.4461373,16.0940208 15.3124446,16.3069296 15.2264994,16.4039571 C15.1405541,16.5005248 15.1064488,16.5924941 15.1255478,16.6651498 C15.1451015,16.7378055 15.1541962,16.8150597 15.1541962,16.8150597 C15.3551899,16.5152399 15.5179857,16.6651498 15.5084362,16.9553128 C15.4988867,17.2459356 15.4174888,17.3811304 15.4174888,17.3811304 C15.5707352,17.3765319 15.6234846,17.1539664 15.6430383,17.0960257 C15.6616825,17.0376253 15.7094299,17.0229102 15.7094299,17.0229102 C15.7667267,17.1971919 15.7044278,17.3429632 15.7044278,17.3429632 C15.8817752,17.3038762 15.8626762,16.999458 15.8626762,16.921744 C15.8626762,16.8444898 15.9149709,16.8104612 15.9149709,16.8104612 C16.0495731,16.9700279 15.982272,17.2215638 15.982272,17.2215638 C16.1259688,17.110281 16.1259688,16.8297748 16.1259688,16.8297748 C16.1978173,16.8730003 16.2169162,16.9746263 16.2169162,16.9746263 C16.2837625,16.820118 16.1978173,16.5589253 16.0059183,16.4715545 C15.8149288,16.3841837 15.6871478,16.1170131 15.6871478,16.1170131 C15.2151309,15.0460312 16.0191057,13.3680522 17.2441667,13.6002746 C18.4687731,13.8334166 18.3796446,15.0069442 18.3796446,15.0069442 C18.3796446,15.0069442 19.1454215,13.948838 19.9875941,14.4390341 C20.8297667,14.9296901 20.535552,16.4913279 20.535552,16.4913279 C20.535552,16.4913279 20.9570931,16.1809317 21.2890509,16.3621111 C22.0293625,16.7879288 20.9316278,19.2522448 20.9316278,19.2522448 C22.6036952,17.433093 23.3308194,14.2583146 22.7942299,11.200337" id="Fill-6714" fill="#0C0A09"></path>
                    <path d="M12.8626788,7.61977017 C12.9514512,7.57899713 13.053183,7.72170275 13.0188404,7.81392747 C12.9851458,7.9051814 12.9171086,7.87508702 12.882766,7.81392747 C12.8490714,7.75276792 12.7875139,7.74208927 12.7875139,7.74208927 C12.8076011,7.63044882 12.8626788,7.61977017 12.8626788,7.61977017 M13.029208,8.0634196 C13.1380676,7.9411005 13.3013569,7.8906196 13.3013569,7.8906196 C13.2540548,7.77703758 13.2203602,7.77703758 13.1445473,7.66442635 C13.0700304,7.5527859 13.0026411,7.38969376 12.7972335,7.41978814 C12.5924739,7.45085331 12.5108292,7.65471848 12.4771346,7.78771623 C12.442792,7.92071399 12.3747547,8.00226005 12.3747547,8.00226005 C12.2795026,8.10419264 12.3954899,8.0634196 12.6274644,8.18670949 C12.858791,8.30902859 12.9203485,8.18670949 13.029208,8.0634196" id="Fill-6715" fill="#0C0A09"></path>
                    <path d="M11.1521937,13.9020257 C11.1508295,13.9006462 11.1494653,13.8969674 11.1485558,13.8942083 C11.1494653,13.8978871 11.1508295,13.8997265 11.1521937,13.9020257" id="Fill-6716" fill="#FFFFFE"></path>
                    <path d="M10.9690772,11.9111214 L10.9690772,11.9111214 C10.9489172,11.8982457 10.9287572,11.8890488 10.9095572,11.8890488 L10.9057172,11.8895086 C10.8826772,11.891348 10.9153172,12.0113679 11.0132372,12.3530336 C11.0583572,12.5107609 11.1092372,12.6891812 11.1591572,12.8712803 C11.2071572,13.0556787 11.2484372,13.2414566 11.2858772,13.404702 C11.3444372,13.6718726 11.3818772,13.8318991 11.4183572,13.886161 C11.4202772,13.8907595 11.4221972,13.8902996 11.4250772,13.8939784 L11.4260372,13.8944382 L11.4260372,13.8939784 C11.4298772,13.8999564 11.4346772,13.904095 11.4394772,13.9059344 C11.4375572,13.9050147 11.4356372,13.9036352 11.4337172,13.9022556 C11.4375572,13.9045548 11.4404372,13.9114525 11.4442772,13.9114525 L11.4452372,13.9114525 C11.4932372,13.9091533 11.4788372,13.6833688 11.4634772,13.5495535 C11.4087572,13.0165917 11.1965972,12.0614911 10.9690772,11.9111214" id="Fill-6717" fill="#FFFFFE"></path>
                    <path d="M10.7656219,12.5167849 C10.7565272,12.5195439 10.7656219,12.5710467 10.7938156,12.7338323 C10.8192808,12.8823626 10.8583882,13.1067676 10.8938577,13.374858 C10.8938577,13.3753178 10.8943124,13.3762375 10.8952219,13.3762375 C10.8952219,13.3762375 10.8974956,13.3766973 10.900224,13.3766973 C10.9011335,13.3766973 10.9038619,13.374858 10.9047714,13.374858 C10.9093187,13.3739383 10.9156851,13.371639 10.9220514,13.365661 C10.9243251,13.3642815 10.9252345,13.365661 10.9270535,13.362902 C10.9461524,13.3403695 10.9629777,13.2815092 10.9388766,13.1274607 C10.8984051,12.8699468 10.7860851,12.5167849 10.7656219,12.5167849" id="Fill-6718" fill="#FFFFFE"></path>
                    <path d="M4.83977189,14.5656758 C4.68809189,14.0584654 4.62665189,13.7443904 4.59017189,13.5563133 C4.55753189,13.3930679 4.54505189,13.332828 4.50953189,13.3277697 C4.50857189,13.3277697 4.50473189,13.3291492 4.50377189,13.3291492 C4.46633189,13.3512219 4.42697189,13.9232706 4.64777189,14.5762523 C4.91849189,15.3244221 5.22377189,15.7580571 5.34473189,15.8274939 C5.34665189,15.8288734 5.34665189,15.8288734 5.34857189,15.8297931 C5.35817189,15.8348514 5.36969189,15.8426688 5.37641189,15.8426688 C5.38025189,15.8426688 5.38313189,15.8417491 5.38601189,15.8403696 C5.41577189,15.8265742 5.37161189,15.7424223 5.28329189,15.5736588 C5.16905189,15.3533924 4.99529189,15.0204637 4.83977189,14.5656758" id="Fill-6719" fill="#FFFFFE"></path>
                    <path d="M5.78938703,14.4115353 C5.67610703,14.0330819 5.48698703,13.3998736 5.38618703,12.5905442 C5.28634703,11.7825943 5.31610703,11.0482199 5.33338703,10.6095266 C5.34394703,10.3598301 5.34682703,10.2338322 5.33146703,10.1906066 C5.32762703,10.1795703 5.32378703,10.1722128 5.31706703,10.1712931 L5.31706703,10.171753 C5.31610703,10.1712931 5.31610703,10.1699136 5.31610703,10.1699136 C5.31226703,10.1699136 5.30938703,10.1703734 5.30650703,10.1722128 C5.22010703,10.2158982 5.01562703,11.0436214 5.17306703,12.6489447 C5.29114703,13.9172006 5.80186703,14.7794123 5.86234703,14.7794123 L5.86330703,14.7789525 C5.86714703,14.7784926 5.86618703,14.7729745 5.86810703,14.7702154 C5.87002703,14.7679162 5.87194703,14.7660768 5.87290703,14.7619382 C5.88154703,14.72653 5.85178703,14.6235244 5.78938703,14.4115353 L5.78938703,14.4115353 Z" id="Fill-6720" fill="#FFFFFE"></path>
                    <path d="M6.01844211,12.459488 C5.99115789,12.2576155 5.96296421,11.9646935 5.93522526,11.6809683 C5.89066105,11.2261804 5.86201263,10.9470537 5.84245895,10.9438348 C5.84154947,10.9438348 5.84064,10.9442946 5.83973053,10.9452143 C5.81744842,10.9714256 5.80016842,11.6018748 5.91521684,12.4843197 C5.99024842,13.1359218 6.21716211,13.9664042 6.23489684,13.9664042 L6.23535158,13.9664042 C6.24262737,13.9641049 6.23216842,13.8900697 6.18214737,13.5727758 C6.14031158,13.3065248 6.07755789,12.9032396 6.01844211,12.459488" id="Fill-6721" fill="#FFFFFE"></path>
                    <path d="M7.78727747,13.7171675 C7.78500379,13.7052115 7.77545432,13.6854381 7.75362695,13.6440519 C7.64630905,13.4421794 7.319808,12.8278249 6.95556379,11.2077865 C6.69545432,9.97309937 6.56585432,9.07823858 6.50401011,8.6478225 C6.46717642,8.3962866 6.45535326,8.31627335 6.44534905,8.31627335 C6.44443958,8.31627335 6.44307537,8.31719305 6.44307537,8.31765289 C6.41670063,8.35030198 6.51810695,9.60522238 6.85734063,11.2381364 C7.07379537,12.2829071 7.36710063,12.9988877 7.56582063,13.386538 C7.57309642,13.4012531 7.57991747,13.4132091 7.58719326,13.4270045 C7.59810695,13.4486173 7.60993011,13.4706899 7.62084379,13.4904633 C7.63175747,13.5102367 7.64176168,13.527251 7.65222063,13.545185 C7.65813221,13.5553016 7.66495326,13.5667978 7.67041011,13.5764545 C7.67905011,13.5907098 7.68587116,13.6026658 7.69405642,13.6141619 C7.70087747,13.6251982 7.70769853,13.6366944 7.71406484,13.6454315 C7.71770274,13.6509496 7.72088589,13.6550883 7.72406905,13.6606064 C7.73361853,13.6734821 7.74180379,13.685898 7.74907958,13.6950949 L7.74907958,13.6955547 C7.76681432,13.7171675 7.77863747,13.7295833 7.78409432,13.7295833 C7.78500379,13.7295833 7.78591326,13.7295833 7.786368,13.7291235 C7.78818695,13.7286637 7.78909642,13.7272841 7.78955116,13.7259046 C7.79000589,13.7249849 7.78773221,13.7213061 7.78773221,13.7194667 C7.78773221,13.7190069 7.78727747,13.7180872 7.78727747,13.7171675" id="Fill-6722" fill="#FFFFFE"></path>
                    <path d="M7.83961098,11.7675574 C7.78327029,11.559247 7.72211415,11.3228861 7.66288419,11.0943425 C7.52082858,10.5452861 7.43270596,10.2086786 7.41248109,10.2086786 C7.411518,10.2086786 7.41055491,10.2091385 7.40959183,10.2100581 C7.38599615,10.2376489 7.51312387,10.89247 7.75534071,11.8172208 C7.99177902,12.7194391 8.32211849,13.3186188 8.3635313,13.3186188 C8.36401285,13.3186188 8.36593903,13.3181589 8.36593903,13.3181589 C8.3721991,13.3121809 8.34523262,13.2390654 8.2604808,13.0119013 C8.1444286,12.6996657 7.94940311,12.1768205 7.83961098,11.7675574 L7.83961098,11.7675574 Z" id="Fill-6723" fill="#FFFFFE"></path>
                    <path d="M8.92794749,11.0025112 C8.92639972,11.0025112 8.92485196,11.0025112 8.92330419,11.0038907 C8.88847948,11.0324012 9.08195009,11.5966325 9.28393341,12.1056823 C9.51996755,12.7007234 9.82255559,13.3665807 9.87131018,13.3665807 L9.87285795,13.3665807 C9.92393419,13.3573838 9.65694475,12.6110533 9.44335319,12.0799309 C9.23285717,11.5598448 8.9759282,11.0025112 8.92794749,11.0025112 L8.92794749,11.0025112 Z" id="Fill-6724" fill="#FFFFFE"></path>
                    <path d="M9.63786872,11.2053494 C9.63690872,11.2053494 9.63306872,11.206269 9.63306872,11.2067289 C9.60522872,11.2223637 9.68106872,11.5065486 9.78090872,11.7590042 C9.87402872,11.9921463 10.0074687,12.244142 10.0621887,12.244142 C10.0669887,12.244142 10.0708287,12.2432223 10.0737087,12.2409231 C10.1226687,12.2119528 10.0458687,11.9328261 9.94218872,11.6904871 C9.84618872,11.460564 9.69642872,11.2053494 9.63786872,11.2053494" id="Fill-6725" fill="#FFFFFE"></path>
                    <path d="M4.71316731,16.1521453 C4.55173473,15.7277073 4.21805192,14.8452623 4.09822568,13.6455235 C4.00752387,12.6288034 4.0957293,11.8102771 4.14316052,11.3711239 C4.16479581,11.1743097 4.17644559,11.0593482 4.16396369,11.0207211 C4.16313156,11.017962 4.16229943,11.0165825 4.16146731,11.0142832 C4.15980305,11.0115242 4.15897093,11.0050863 4.15730667,11.0037068 C4.15564242,11.0027871 4.15397817,11.0023272 4.15231391,11.0023272 L4.15148179,11.0023272 C4.15148179,11.0023272 4.14815328,11.0014075 4.14732115,11.0014075 C4.14482477,11.0014075 4.14316052,11.0023272 4.14066414,11.0037068 C4.05911572,11.0506111 3.78284966,12.2011464 3.86689446,13.7232375 C3.95426776,15.2706201 4.67572161,16.4832346 4.79554785,16.4832346 C4.79554785,16.4832346 4.79887636,16.4827748 4.79970848,16.4827748 C4.80553337,16.4818551 4.80719762,16.4740377 4.809694,16.4666802 C4.809694,16.4662203 4.809694,16.4662203 4.81052613,16.4657605 C4.81635102,16.4317319 4.78223382,16.3374634 4.71316731,16.1521453 L4.71316731,16.1521453 Z" id="Fill-6726" fill="#FFFFFE"></path>
                    <path d="M9.97810863,11.2377225 C9.97719916,11.2377225 9.97628968,11.2381824 9.97583495,11.2386422 C9.97492547,11.2400218 9.97628968,11.2510581 9.97583495,11.2561164 L9.97583495,11.2607148 C9.97719916,11.3108381 10.0072118,11.4809812 10.0626897,11.7844797 C10.0831528,11.897142 10.1063444,12.0208407 10.129536,12.1491378 C10.1513634,12.2705372 10.1777381,12.4383811 10.2063865,12.6158817 C10.2755065,13.0449183 10.3182518,13.3051912 10.3355318,13.3051912 C10.3391697,13.3051912 10.3418981,13.3033519 10.3441718,13.3005928 C10.3619065,13.2798997 10.380096,13.1630988 10.3055192,12.6135825 C10.1845592,11.8327636 10.0108497,11.2377225 9.97810863,11.2377225" id="Fill-6727" fill="#FFFFFE"></path>
                    <path d="M10.4464421,12.6470133 C10.4459874,12.6470133 10.4446232,12.6474732 10.4446232,12.647933 C10.4396211,12.6529913 10.4487158,12.6962169 10.4700884,12.8042807 C10.4919158,12.9128044 10.5214737,13.0617946 10.54512,13.2204416 C10.5737684,13.4144967 10.6001432,13.6191283 10.6215158,13.7837532 C10.6551663,14.0435664 10.6610779,14.0831131 10.6656253,14.0831131 L10.66608,14.0831131 C10.6774484,14.0794344 10.7020042,13.6816674 10.6274274,13.1946902 C10.5942316,12.9528111 10.4605389,12.6470133 10.4464421,12.6470133" id="Fill-6728" fill="#FFFFFE"></path>
                    <path d="M15.4452998,11.8894626 L15.4424198,11.8890028 C15.4222598,11.8890028 15.4020998,11.8981997 15.3809798,11.9110754 L15.3809798,11.9115352 C15.1534598,12.0628246 14.9422598,13.0179253 14.8865798,13.5508871 C14.8702598,13.7141325 14.8587398,13.9095672 14.9057798,13.9118664 L14.9067398,13.9118664 C14.9096198,13.9118664 14.9134598,13.9045089 14.9172998,13.9022096 C14.9144198,13.904049 14.9124998,13.9054286 14.9105798,13.9058884 C14.9153798,13.9049687 14.9201798,13.8999104 14.9249798,13.8939324 C14.9259398,13.8934725 14.9268998,13.8930127 14.9268998,13.892093 C14.9297798,13.8893339 14.9316998,13.8897938 14.9336198,13.886115 C14.9681798,13.832313 15.0075398,13.6732062 15.0660998,13.4051158 C15.1025798,13.2414106 15.1428998,13.0556327 15.1928198,12.8716942 C15.2408198,12.6891352 15.2916998,12.5107149 15.3368198,12.3534475 C15.4356998,12.0113219 15.4673798,11.8917618 15.4452998,11.8894626" id="Fill-6729" fill="#FFFFFE"></path>
                    <path d="M14.8971335,13.8944842 C14.8957693,13.8972433 14.8948598,13.9009221 14.8934956,13.9023016 C14.8944051,13.9000024 14.8957693,13.898163 14.8971335,13.8944842" id="Fill-6730" fill="#FFFFFE"></path>
                    <path d="M15.1065853,13.1276906 C15.0820295,13.2817391 15.0993095,13.3410593 15.1179537,13.3631319 C15.1202274,13.3654311 15.1211368,13.3640516 15.1234105,13.365891 C15.1302316,13.371869 15.1356884,13.3741682 15.1411453,13.374628 C15.1420547,13.374628 15.1447832,13.3769273 15.1456926,13.3769273 C15.1488758,13.3769273 15.1506947,13.3764674 15.1506947,13.3764674 C15.1511495,13.3764674 15.1520589,13.3755477 15.1520589,13.3750879 C15.1870737,13.1069975 15.2261811,12.8821327 15.2516463,12.7336024 C15.27984,12.5712766 15.28848,12.5197739 15.2793853,12.5165549 C15.2593768,12.5165549 15.1493305,12.863279 15.1065853,13.1276906" id="Fill-6731" fill="#FFFFFE"></path>
                    <path d="M15.8576035,12.6471053 C15.8259235,12.6471053 15.5456035,12.952903 15.4755235,13.195242 C15.3180835,13.6817593 15.3699235,14.0795263 15.3939235,14.0832051 L15.3939235,14.0832051 C15.4044835,14.0832051 15.4188835,14.0395197 15.4918435,13.7741884 C15.5350435,13.6123226 15.5907235,13.4109099 15.6492835,13.2200737 C15.7001635,13.0628063 15.7616035,12.914276 15.8067235,12.8062121 C15.8528035,12.6972285 15.8720035,12.6526234 15.8614435,12.648025 C15.8614435,12.648025 15.8595235,12.6471053 15.8576035,12.6471053 L15.8576035,12.6471053 Z" id="Fill-6732" fill="#FFFFFE"></path>
                    <path d="M16.0694905,11.2547368 C16.0690358,11.2501384 16.0704,11.2395619 16.0694905,11.2386422 C16.0690358,11.2386422 16.0681263,11.2377225 16.0672168,11.2377225 C16.0344758,11.2377225 15.8612211,11.8327636 15.7398063,12.6131226 C15.6652295,13.1635586 15.6838737,13.2803596 15.7016084,13.3005928 C15.7038821,13.3038117 15.7066105,13.3051912 15.7102484,13.3051912 C15.7275284,13.3051912 15.7707284,13.0430789 15.8398484,12.6108234 C15.8680421,12.4351622 15.8944168,12.2696175 15.9157895,12.1491378 C15.9389811,12.0190013 15.9626274,11.8939231 15.9830905,11.7803411 C16.0381137,11.4819009 16.0676716,11.3135972 16.0694905,11.2620944 L16.0694905,11.2547368 Z" id="Fill-6733" fill="#FFFFFE"></path>
                    <path d="M16.6486103,11.2054413 C16.5929303,11.2054413 16.4431703,11.460656 16.3462103,11.6901193 C16.2425303,11.9329181 16.1657303,12.2120448 16.2146903,12.2410151 C16.2175703,12.2433143 16.2214103,12.244234 16.2262103,12.244234 C16.2809303,12.244234 16.4153303,11.9917784 16.5074903,11.7590962 C16.6054103,11.5116989 16.6822103,11.2224556 16.6553303,11.2068209 C16.6534103,11.2059012 16.6514903,11.2054413 16.6486103,11.2054413" id="Fill-6734" fill="#FFFFFE"></path>
                    <path d="M17.1211604,11.0022813 C17.0934215,11.0022813 16.9424488,11.5596149 16.8183057,12.0801609 C16.6932531,12.6112833 16.5359141,13.3571539 16.5659267,13.3668106 L16.5668362,13.3668106 C16.5959394,13.3668106 16.7732867,12.7009533 16.9119815,12.1054524 C17.0306678,11.5964026 17.144352,11.0321713 17.1243436,11.0036608 C17.1229794,11.0022813 17.1220699,11.0022813 17.1211604,11.0022813" id="Fill-6735" fill="#FFFFFE"></path>
                    <path d="M18.6311141,10.2100581 C18.6302046,10.2091385 18.6292952,10.2086786 18.6283857,10.2086786 C18.608832,10.2086786 18.5260699,10.5452861 18.3914678,11.0943425 C18.3359899,11.3228861 18.2782383,11.5587872 18.2250341,11.7675574 C18.1204446,12.1772804 17.9367309,12.6996657 17.8266846,13.0119013 C17.7471057,13.2386055 17.7220952,13.3121809 17.7280067,13.3181589 C17.7280067,13.3181589 17.7293709,13.3186188 17.7298257,13.3186188 C17.7689331,13.3186188 18.0813373,12.7194391 18.3046131,11.8172208 C18.5324362,10.89247 18.6524867,10.2376489 18.6311141,10.2100581" id="Fill-6736" fill="#FFFFFE"></path>
                    <path d="M19.5953381,8.31654926 C19.5853339,8.31654926 19.573056,8.39610266 19.5366771,8.6490181 C19.4739234,9.07897433 19.3447781,9.97475482 19.0846686,11.2076026 C18.7213339,12.8267212 18.3943781,13.4415357 18.2875149,13.6434082 C18.2652328,13.6843345 18.2561381,13.7041079 18.2538644,13.7165237 C18.2534097,13.7179033 18.2529549,13.7192828 18.2529549,13.7202025 C18.2529549,13.7211222 18.2506813,13.7243411 18.251136,13.7252608 C18.2520455,13.7271002 18.2529549,13.7284797 18.2543192,13.7289396 C18.2547739,13.7293994 18.2556834,13.7293994 18.2565928,13.7293994 C18.2643234,13.7293994 18.2866055,13.703648 18.3188918,13.6567437 C18.3216202,13.6530649 18.3234392,13.6503059 18.3257128,13.6466271 C18.3338981,13.6346711 18.3429928,13.619956 18.3520876,13.6057008 C18.3575444,13.5969637 18.3630013,13.5886865 18.3693676,13.57811 C18.3784623,13.5633949 18.3880118,13.5454609 18.3975613,13.5289064 C18.4048371,13.5164906 18.4112034,13.5054543 18.4189339,13.4916589 C18.4343949,13.4640681 18.4507655,13.4323387 18.4680455,13.3996897 C18.4703192,13.395551 18.4716834,13.392792 18.4735023,13.3886533 C18.6726771,13.0019226 18.9659823,12.2850224 19.1833465,11.2379525 C19.5230349,9.60503844 19.6235318,8.35057788 19.5976118,8.3179288 C19.5976118,8.31746895 19.5962476,8.31654926 19.5953381,8.31654926" id="Fill-6737" fill="#FFFFFE"></path>
                    <path d="M20.1974552,10.9441107 C20.1788109,10.9468698 20.1538004,11.2103617 20.1142383,11.6403179 C20.0887731,11.9249627 20.0592152,12.247315 20.0310215,12.4597639 C19.9673583,12.9366245 19.8982383,13.3560043 19.8523099,13.6328317 C19.8077457,13.9009221 19.7981962,13.9643808 19.8045625,13.9666801 L19.805472,13.9666801 C19.8213878,13.9666801 20.0373878,13.1361978 20.1128741,12.4845956 C20.2251941,11.6182453 20.2251941,10.9744606 20.2006383,10.9454902 C20.1997288,10.9445705 20.1988194,10.9441107 20.1974552,10.9441107" id="Fill-6738" fill="#FFFFFE"></path>
                    <path d="M20.8298122,10.1698216 L20.8293575,10.1698216 C20.8275385,10.1702814 20.8266291,10.1785587 20.8252648,10.1817776 C20.8248101,10.1840768 20.8239006,10.1845367 20.8234459,10.1872958 C20.8157154,10.225463 20.8166248,10.3500813 20.8216269,10.6089748 C20.8302669,11.0476681 20.8439091,11.7820425 20.7970712,12.5904522 C20.7493238,13.4002415 20.6597406,14.0339096 20.6060817,14.4119032 C20.5760691,14.6238923 20.5619722,14.7268979 20.5665196,14.7627659 C20.5669743,14.7659848 20.5678838,14.7673644 20.5683385,14.7701234 C20.569248,14.7728825 20.569248,14.7788605 20.5710669,14.7797802 C20.6001701,14.7797802 20.8416354,13.9166488 20.8980227,12.6488527 C20.9725996,11.0435295 20.8757406,10.2153464 20.8348143,10.1721208 C20.8334501,10.1707413 20.8320859,10.1698216 20.8298122,10.1698216" id="Fill-6739" fill="#FFFFFE"></path>
                    <path d="M22.0157955,13.3280456 C21.9793155,13.3326441 21.9677955,13.3938036 21.9351555,13.5575089 C21.8977155,13.745586 21.8362755,14.059661 21.6845955,14.5654919 C21.5281155,15.0207396 21.3562755,15.3536683 21.2401155,15.5739347 C21.1537155,15.7422384 21.1095555,15.8268501 21.1393155,15.8401856 C21.1421955,15.8415652 21.1450755,15.8424849 21.1489155,15.8424849 C21.1565955,15.8424849 21.1671555,15.8346675 21.1757955,15.8296092 C21.1777155,15.8291493 21.1786755,15.8291493 21.1796355,15.8277698 C21.2996355,15.7578732 21.6049155,15.3242382 21.8765955,14.5765282 C22.0983555,13.9235465 22.0589955,13.3510379 22.0215555,13.3294251 C22.0205955,13.3289653 22.0167555,13.3280456 22.0157955,13.3280456" id="Fill-6740" fill="#FFFFFE"></path>
                    <path d="M22.3349809,11.0037528 C22.3333196,11.0028331 22.3316584,11.0019134 22.3283359,11.0019134 C22.3250134,11.0019134 22.3208602,11.0023732 22.3183684,11.0037528 C22.3158765,11.0051323 22.3158765,11.01203 22.3142152,11.0152489 C22.3133846,11.0166285 22.312554,11.018008 22.3117233,11.0193875 C22.2984333,11.0557154 22.3092315,11.1711368 22.3316584,11.3711699 C22.3790041,11.8103231 22.4678811,12.6288494 22.3756816,13.6455694 C22.2577326,14.8453083 21.9238209,15.7282131 21.7626794,16.1521913 C21.6762943,16.3825743 21.6430692,16.4763829 21.6771249,16.4828208 L21.681278,16.4832806 C21.8000576,16.4832806 22.5210412,15.2706661 22.6082569,13.7232835 C22.6921502,12.2011924 22.4163823,11.0511169 22.3349809,11.0037528 L22.3349809,11.0037528 Z" id="Fill-6741" fill="#FFFFFE"></path>
                </g>
            </g>
        </g>
    </g>
</svg>