<?xml version="1.0" encoding="utf-8"?>
<!-- Generator: Adobe Illustrator 27.5.0, SVG Export Plug-In . SVG Version: 6.00 Build 0)  -->
<svg version="1.1" id="Laag_1" xmlns="http://www.w3.org/2000/svg" xmlns:xlink="http://www.w3.org/1999/xlink" x="0px" y="0px"
	 viewBox="0 0 595.3 841.9" style="enable-background:new 0 0 595.3 841.9;" xml:space="preserve">
<style type="text/css">
	.st0{fill:#FFFFFF;}
</style>
<path class="st0" d="M266.6,403.8v4.7c0,0.4,0.4,0.8,0.8,0.8h61.2c0.4,0,0.8-0.4,0.8-0.8v-4.7c0-0.4-0.4-0.8-0.8-0.8h-61.2
	C267,403,266.6,403.3,266.6,403.8z"/>
<path class="st0" d="M266.6,433.6v4.7c0,0.4,0.4,0.8,0.8,0.8h61.2c0.4,0,0.8-0.4,0.8-0.8v-4.7c0-0.4-0.4-0.8-0.8-0.8h-61.2
	C267,432.8,266.6,433.1,266.6,433.6z"/>
</svg>
