<?xml version="1.0" encoding="utf-8"?>
<!-- Generator: Adobe Illustrator 27.5.0, SVG Export Plug-In . SVG Version: 6.00 Build 0)  -->
<svg version="1.1" xmlns="http://www.w3.org/2000/svg" xmlns:xlink="http://www.w3.org/1999/xlink" x="0px" y="0px"
	 viewBox="0 0 595.3 841.9" style="enable-background:new 0 0 595.3 841.9;" xml:space="preserve">
<style type="text/css">
	.st0{fill:#FFFFFF;}
</style>
<g id="Laag_1">
</g>
<g id="Laag_2">
	<path class="st0" d="M265.7,401.4v4.7c0,0.4,0.4,0.8,0.8,0.8h61.2c0.4,0,0.8-0.4,0.8-0.8v-4.7c0-0.4-0.4-0.8-0.8-0.8h-61.2
		C266.1,400.6,265.7,400.9,265.7,401.4z"/>
	<path class="st0" d="M265.7,431.2v4.7c0,0.4,0.4,0.8,0.8,0.8h61.2c0.4,0,0.8-0.4,0.8-0.8v-4.7c0-0.4-0.4-0.8-0.8-0.8h-61.2
		C266.1,430.4,265.7,430.7,265.7,431.2z"/>
</g>
</svg>
